<?xml version="1.0" encoding="UTF-8" standalone="no"?>
<!-- Created with Inkscape (http://www.inkscape.org/) -->

<svg
   width="210mm"
   height="297mm"
   viewBox="0 0 210 297"
   version="1.1"
   id="svg48818"
   inkscape:version="1.2.2 (732a01da63, 2022-12-09)"
   sodipodi:docname="Buttons.svg"
   xmlns:inkscape="http://www.inkscape.org/namespaces/inkscape"
   xmlns:sodipodi="http://sodipodi.sourceforge.net/DTD/sodipodi-0.dtd"
   xmlns="http://www.w3.org/2000/svg"
   xmlns:svg="http://www.w3.org/2000/svg">
  <sodipodi:namedview
     id="namedview48820"
     pagecolor="#ffffff"
     bordercolor="#000000"
     borderopacity="0.25"
     inkscape:showpageshadow="2"
     inkscape:pageopacity="0.0"
     inkscape:pagecheckerboard="0"
     inkscape:deskcolor="#d1d1d1"
     inkscape:document-units="mm"
     showgrid="false"
     inkscape:zoom="2.1089995"
     inkscape:cx="217.63874"
     inkscape:cy="261.73548"
     inkscape:window-width="1920"
     inkscape:window-height="1017"
     inkscape:window-x="-8"
     inkscape:window-y="-8"
     inkscape:window-maximized="1"
     inkscape:current-layer="layer1" />
  <defs
     id="defs48815">
    <clipPath
       clipPathUnits="userSpaceOnUse"
       id="clipPath19920">
      <path
         d="m 2748.59,797.93 v 53.09 c 0,8.32 0.57,16.878 1.72,25.691 2.43,18.598 7.38,28.488 14.58,29.57 V 853.18 c -7.2,-1.071 -12.15,-10.961 -14.58,-29.571 -1.15,-8.789 -1.72,-17.359 -1.72,-25.679"
         id="path19918" />
    </clipPath>
    <clipPath
       clipPathUnits="userSpaceOnUse"
       id="clipPath19930">
      <path
         d="m 2897.47,912.648 v -53.097 c 0,-3.922 -1.57,-7.121 -4.78,-9.781 -3.6,-2.961 -11.97,-5.211 -25.11,-6.829 -3.41,-0.421 -7.29,-0.632 -11.64,-0.632 -12.32,0 -28.44,1.66 -48.39,4.863 -25.92,4.117 -40.14,6.019 -42.66,6.008 v 53.101 c 2.52,0.008 16.74,-1.902 42.66,-6.031 19.95,-3.18 36.07,-4.852 48.39,-4.852 4.35,0 8.23,0.211 11.64,0.633 13.14,1.617 21.51,3.86 25.11,6.828 3.21,2.661 4.78,5.86 4.78,9.789"
         id="path19928" />
    </clipPath>
    <clipPath
       clipPathUnits="userSpaceOnUse"
       id="clipPath19942">
      <path
         d="M 3038.78,911.031 V 857.93 c 0,2.379 -0.1,4.781 -0.29,7.211 -1.26,16.898 -6.03,31.449 -14.4,43.589 -8.37,12.129 -18.36,21.301 -30.06,27.239 -11.7,6.011 -24.3,10.953 -37.8,14.91 -13.41,3.953 -25.83,6.562 -37.08,7.91 -11.25,1.352 -20.7,3.141 -28.53,5.391 -7.74,2.25 -11.97,5.75 -12.51,10.699 v 53.091 c 0.54,-4.94 4.77,-8.45 12.51,-10.69 7.83,-2.25 17.28,-4.05 28.53,-5.39 11.25,-1.35 23.67,-3.96 37.08,-7.92 13.5,-3.95 26.1,-8.888 37.8,-14.919 11.7,-5.922 21.69,-15.09 30.06,-27.219 8.37,-12.141 13.14,-26.703 14.4,-43.602 0.19,-2.421 0.29,-4.82 0.29,-7.199"
         id="path19940" />
    </clipPath>
    <clipPath
       clipPathUnits="userSpaceOnUse"
       id="clipPath19960">
      <path
         d="m 2878.01,976.441 v 53.089 l 0.1,-1.56 v -53.091 l -0.1,1.562"
         id="path19958" />
    </clipPath>
    <clipPath
       clipPathUnits="userSpaceOnUse"
       id="clipPath19970">
      <path
         d="m 3016.09,1109.09 v -53.08 c 0,2.38 -0.09,4.72 -0.28,7.04 -0.36,4.4 -5.85,8.53 -16.47,12.31 -10.62,3.68 -28.71,6.38 -54.09,7.64 -6.26,0.31 -12.79,0.47 -19.6,0.47 v 53.09 c 6.81,0 13.34,-0.16 19.6,-0.47 25.38,-1.26 43.47,-3.95 54.09,-7.63 10.62,-3.78 16.11,-7.91 16.47,-12.32 0.19,-2.31 0.28,-4.67 0.28,-7.05"
         id="path19968" />
    </clipPath>
    <clipPath
       clipPathUnits="userSpaceOnUse"
       id="clipPath19984">
      <path
         d="m 2730.74,981.02 v 53.09 c 0,53.98 41.35,87.75 124.51,97.84 26,3.13 49.5,4.61 70.4,4.61 v -53.09 c -20.9,0 -44.4,-1.49 -70.4,-4.6 -83.16,-10.1 -124.51,-43.87 -124.51,-97.85"
         id="path19982" />
    </clipPath>
    <clipPath
       clipPathUnits="userSpaceOnUse"
       id="clipPath19998">
      <path
         d="m 3208.32,864.602 v 53.097 c 0.81,-22.558 1.53,-45.219 2.25,-67.777 V 796.84 c -0.72,22.551 -1.44,45.199 -2.25,67.762"
         id="path19996" />
    </clipPath>
    <clipPath
       clipPathUnits="userSpaceOnUse"
       id="clipPath20008">
      <path
         d="m 3206.43,938.66 v 53.09 c 4.05,0.18 8.1,0.27 12.06,0.359 v -53.097 c -3.96,-0.082 -8.01,-0.172 -12.06,-0.352"
         id="path20006" />
    </clipPath>
    <clipPath
       clipPathUnits="userSpaceOnUse"
       id="clipPath20018">
      <path
         d="m 3218.49,939.012 v 53.097 c 6.39,0.27 11.43,1.172 15.03,2.879 3.69,1.801 6.84,6.292 9.54,13.652 v -53.081 c -2.7,-7.379 -5.85,-11.868 -9.54,-13.668 -3.6,-1.7 -8.64,-2.602 -15.03,-2.879"
         id="path20016" />
    </clipPath>
    <clipPath
       clipPathUnits="userSpaceOnUse"
       id="clipPath20030">
      <path
         d="m 3246.7,1035.92 v -53.1 c 0,-11.539 -1.19,-20.582 -3.64,-27.261 v 53.081 c 2.45,6.69 3.64,15.73 3.64,27.28"
         id="path20028" />
    </clipPath>
    <clipPath
       clipPathUnits="userSpaceOnUse"
       id="clipPath20040">
      <path
         d="m 3203.46,1030.16 v 53.08 c 0.99,-30.47 1.98,-60.94 2.97,-91.49 v -53.09 c -0.99,30.559 -1.98,61.031 -2.97,91.5"
         id="path20038" />
    </clipPath>
    <clipPath
       clipPathUnits="userSpaceOnUse"
       id="clipPath20050">
      <path
         d="m 3389.87,1047.75 v -53.078 c 0,27.258 -5.06,49.808 -15.5,67.648 v 53.1 c 10.44,-17.84 15.5,-40.4 15.5,-67.67"
         id="path20048" />
    </clipPath>
    <clipPath
       clipPathUnits="userSpaceOnUse"
       id="clipPath20062">
      <path
         d="m 3056.13,1076.35 v 53.09 c -0.99,14.03 48.78,25.53 149.67,28.94 10.61,0.31 20.6,0.47 29.95,0.47 44.33,0 74.63,-3.41 90.83,-9.28 23.76,-8.36 39.6,-19.77 47.79,-34.15 v -53.1 c -8.19,14.39 -24.03,25.81 -47.79,34.16 -16.2,5.86 -46.5,9.27 -90.83,9.27 -9.35,0 -19.34,-0.15 -29.95,-0.46 -100.89,-3.41 -150.66,-14.92 -149.67,-28.94"
         id="path20060" />
    </clipPath>
    <clipPath
       clipPathUnits="userSpaceOnUse"
       id="clipPath20078">
      <path
         d="m 3570.68,1128.68 v -53.08 c 0,2.75 -1.01,5.57 -3.17,8.48 -6.48,8.45 -20.88,13.3 -43.29,14.38 -4.42,0.22 -8.76,0.33 -13.03,0.33 v 53.09 c 4.27,0 8.61,-0.11 13.03,-0.33 22.41,-1.08 36.81,-5.94 43.29,-14.38 2.16,-2.9 3.17,-5.73 3.17,-8.49"
         id="path20076" />
    </clipPath>
    <clipPath
       clipPathUnits="userSpaceOnUse"
       id="clipPath20092">
      <path
         d="m 3418.38,795.289 v 53.102 c 2.16,92.668 4.41,185.239 6.57,277.719 0.18,6.57 10.44,12.86 30.87,18.61 16.84,4.74 35.33,7.16 55.37,7.16 v -53.09 c -20.04,0 -38.53,-2.42 -55.37,-7.16 -20.43,-5.75 -30.69,-12.05 -30.87,-18.6 -2.16,-92.491 -4.41,-185.061 -6.57,-277.538 v -0.203"
         id="path20090" />
    </clipPath>
    <clipPath
       clipPathUnits="userSpaceOnUse"
       id="clipPath20108">
      <path
         d="m 3951.42,1084.47 v -53.09 c 0,3.69 -1.4,7.93 -4.2,12.61 -4.77,8 -18.09,13.75 -39.96,16.9 -12.69,1.85 -24.77,2.76 -36.25,2.76 -11.5,0 -22.39,-0.91 -32.69,-2.76 -20.52,-3.68 -31.23,-9.35 -32.13,-16.72 -4.23,-34.87 -8.37,-69.65 -12.6,-104.522 v 53.082 c 4.23,34.88 8.37,69.66 12.6,104.54 0.9,7.37 11.61,13.02 32.13,16.71 10.3,1.84 21.19,2.77 32.69,2.77 11.48,0 23.56,-0.93 36.25,-2.77 21.87,-3.14 35.19,-8.89 39.96,-16.89 2.8,-4.69 4.2,-8.94 4.2,-12.62"
         id="path20106" />
    </clipPath>
    <clipPath
       clipPathUnits="userSpaceOnUse"
       id="clipPath20124">
      <path
         d="m 3687.03,1085.71 v 53.1 c 8.1,0 16.48,-0.42 25.11,-1.28 9.09,-0.81 15.84,-1.8 20.34,-2.87 11.7,-2.71 19.35,-9.89 22.95,-21.66 12.51,-40 24.57,-79.99 36.09,-120.078 v -53.09 c -11.52,40.078 -23.58,80.068 -36.09,120.068 -3.6,11.78 -11.25,18.97 -22.95,21.66 -4.5,1.08 -11.25,2.07 -20.34,2.87 -8.63,0.86 -17.01,1.28 -25.11,1.28"
         id="path20122" />
    </clipPath>
    <clipPath
       clipPathUnits="userSpaceOnUse"
       id="clipPath20136">
      <path
         d="m 3592.15,788.832 v 53.09 l 0.02,0.637 c 6.57,91.132 13.05,182.261 19.53,273.401 0.54,7.37 10.98,13.57 31.5,18.25 13.48,3.02 28.14,4.6 43.83,4.6 v -53.1 c -15.69,0 -30.35,-1.57 -43.83,-4.6 -20.52,-4.67 -30.96,-10.88 -31.5,-18.24 -6.48,-91.14 -12.96,-182.268 -19.53,-273.409 l -0.02,-0.629"
         id="path20134" />
    </clipPath>
    <clipPath
       clipPathUnits="userSpaceOnUse"
       id="clipPath18654">
      <path
         d="m 4696.65,925.879 v 45.043 c 1.98,0.18 3.95,0.359 6.03,0.547 V 926.43 c -2.08,-0.192 -4.05,-0.371 -6.03,-0.551"
         id="path18652" />
    </clipPath>
    <clipPath
       clipPathUnits="userSpaceOnUse"
       id="clipPath18664">
      <path
         d="m 4823.19,936.129 v 45.043 c 1.98,0.09 3.96,0.18 5.94,0.348 v -45.04 c -1.98,-0.171 -3.96,-0.261 -5.94,-0.351"
         id="path18662" />
    </clipPath>
    <clipPath
       clipPathUnits="userSpaceOnUse"
       id="clipPath18674">
      <path
         d="m 4702.65,956.609 v 45.041 c 0,30.17 0.09,60.32 0.3,90.52 v -45.04 c -0.21,-30.21 -0.3,-60.349 -0.3,-90.521"
         id="path18672" />
    </clipPath>
    <clipPath
       clipPathUnits="userSpaceOnUse"
       id="clipPath18684">
      <path
         d="m 4829.13,936.48 v 45.04 c 1.53,40.09 3.14,80.27 4.86,120.44 v -45.04 c -1.72,-40.17 -3.33,-80.35 -4.86,-120.44"
         id="path18682" />
    </clipPath>
    <clipPath
       clipPathUnits="userSpaceOnUse"
       id="clipPath18694">
      <path
         d="m 4529.4,1021.66 v 45.04 c 0,4.75 9.64,11.77 29.28,20.79 20.25,9.35 41.4,15.46 63.18,18.15 5.26,0.67 10.08,0.99 14.48,0.99 19.09,0 30.07,-6.13 32.77,-17.97 9.36,-39.19 18.54,-78.46 27.54,-117.73 v -45.051 c -9,39.281 -18.18,78.551 -27.54,117.741 -2.7,11.84 -13.68,17.97 -32.77,17.97 -4.4,0 -9.22,-0.32 -14.48,-0.98 -21.78,-2.7 -42.93,-8.81 -63.18,-18.16 -19.64,-9.02 -29.28,-16.03 -29.28,-20.79"
         id="path18692" />
    </clipPath>
    <clipPath
       clipPathUnits="userSpaceOnUse"
       id="clipPath18708">
      <path
         d="m 4702.95,1047.13 v 45.04 c 0,14.92 19.44,24.44 58.41,27.5 3.97,0.31 7.6,0.46 10.88,0.46 9.15,0 15.63,-1.17 19.54,-3.43 5.31,-3.06 8.46,-7.36 9.45,-12.85 7.47,-40.89 14.85,-81.79 21.96,-122.678 v -45.043 c -7.11,40.891 -14.49,81.791 -21.96,122.681 -0.99,5.49 -4.14,9.79 -9.45,12.85 -3.91,2.26 -10.39,3.43 -19.54,3.43 -3.28,0 -6.91,-0.15 -10.88,-0.46 -38.97,-3.06 -58.41,-12.58 -58.41,-27.5"
         id="path18706" />
    </clipPath>
    <clipPath
       clipPathUnits="userSpaceOnUse"
       id="clipPath18724">
      <path
         d="m 4926.91,1082.6 v 45.04 c 16.8,0 28.45,-2.26 34.97,-6.62 7.02,-4.77 10.53,-9.8 10.62,-15.1 v -45.04 c -0.09,5.3 -3.6,10.33 -10.62,15.1 -6.52,4.36 -18.17,6.62 -34.97,6.62"
         id="path18722" />
    </clipPath>
    <clipPath
       clipPathUnits="userSpaceOnUse"
       id="clipPath18738">
      <path
         d="m 4833.99,1056.92 v 45.04 c 0.54,7.38 10.44,13.49 29.88,18.07 19.44,4.67 38.97,7.19 58.32,7.55 1.62,0.04 3.19,0.06 4.72,0.06 v -45.04 c -1.53,0 -3.1,-0.02 -4.72,-0.06 -19.35,-0.36 -38.88,-2.88 -58.32,-7.55 -19.44,-4.59 -29.34,-10.69 -29.88,-18.07"
         id="path18736" />
    </clipPath>
    <clipPath
       clipPathUnits="userSpaceOnUse"
       id="clipPath18750">
      <path
         d="m 4994.19,823.52 v 45.031 c 0.18,78.558 0.45,157.019 0.63,235.569 v -45.04 c -0.18,-78.549 -0.45,-157.01 -0.63,-235.56"
         id="path18748" />
    </clipPath>
    <clipPath
       clipPathUnits="userSpaceOnUse"
       id="clipPath18760">
      <path
         d="m 5119.66,1108.24 v -45.04 c 0,2.41 -0.91,4.9 -2.8,7.39 v 45.03 c 1.89,-2.49 2.8,-4.98 2.8,-7.38"
         id="path18758" />
    </clipPath>
    <clipPath
       clipPathUnits="userSpaceOnUse"
       id="clipPath18772">
      <path
         d="m 5072.7,1082.37 v 45.04 c 2.24,0 4.52,-0.04 6.81,-0.11 19.17,-0.62 31.68,-4.57 37.35,-11.68 v -45.03 c -5.67,7.09 -18.18,11.05 -37.35,11.68 -2.29,0.06 -4.57,0.1 -6.81,0.1"
         id="path18770" />
    </clipPath>
    <clipPath
       clipPathUnits="userSpaceOnUse"
       id="clipPath18784">
      <path
         d="m 4994.82,1059.08 v 45.04 c 0,5.48 8.64,10.97 26.1,16.27 15.53,4.66 32.85,7.02 51.78,7.02 v -45.04 c -18.93,0 -36.25,-2.36 -51.78,-7.02 -17.46,-5.3 -26.1,-10.79 -26.1,-16.27"
         id="path18782" />
    </clipPath>
    <clipPath
       clipPathUnits="userSpaceOnUse"
       id="clipPath18800">
      <path
         d="m 5446.39,1073.12 v -45.04 c 0,3.11 -1.21,6.69 -3.64,10.78 -4.14,6.74 -15.57,11.59 -34.29,14.28 -10.74,1.56 -20.99,2.32 -30.73,2.32 -10.03,0 -19.5,-0.8 -28.4,-2.4 -17.64,-3.15 -26.73,-8 -27.46,-14.29 -3.41,-29.57 -6.83,-59.141 -10.25,-88.801 v 45.043 c 3.42,29.658 6.84,59.228 10.25,88.798 0.73,6.29 9.82,11.14 27.46,14.29 8.9,1.6 18.37,2.4 28.4,2.4 9.74,0 19.99,-0.76 30.73,-2.32 18.72,-2.69 30.15,-7.54 34.29,-14.28 2.43,-4.08 3.64,-7.67 3.64,-10.78"
         id="path18798" />
    </clipPath>
    <clipPath
       clipPathUnits="userSpaceOnUse"
       id="clipPath18816">
      <path
         d="m 5221.24,1073.25 v 45.05 c 6.34,0 12.88,-0.29 19.64,-0.88 7.83,-0.62 13.59,-1.43 17.46,-2.33 10.08,-2.16 16.65,-8.27 19.89,-18.25 11.07,-33.79 21.6,-67.68 31.68,-101.559 v -45.043 c -10.08,33.883 -20.61,67.772 -31.68,101.562 -3.24,9.98 -9.81,16.09 -19.89,18.25 -3.87,0.9 -9.63,1.71 -17.46,2.33 -6.76,0.59 -13.3,0.87 -19.64,0.87"
         id="path18814" />
    </clipPath>
    <clipPath
       clipPathUnits="userSpaceOnUse"
       id="clipPath18828">
      <path
         d="m 5141.6,820.57 v 45.032 c 4.51,77.82 8.92,155.198 13.33,232.578 0.36,6.3 9.27,11.61 26.82,15.74 12.13,2.92 25.29,4.38 39.49,4.38 v -45.05 c -14.2,0 -27.36,-1.45 -39.49,-4.37 -17.55,-4.13 -26.46,-9.44 -26.82,-15.74 -4.41,-77.378 -8.82,-154.761 -13.32,-232.14 l -0.01,-0.43"
         id="path18826" />
    </clipPath>
    <clipPath
       clipPathUnits="userSpaceOnUse"
       id="clipPath21144">
      <path
         d="m 2596.05,343.66 v 18.84 c 0,3.332 6.48,24.191 19.44,62.781 13.05,38.5 20.52,60.719 22.41,66.641 V 473.09 c -1.89,-5.93 -9.36,-28.149 -22.41,-66.641 -12.96,-38.597 -19.44,-59.461 -19.44,-62.789"
         id="path21142" />
    </clipPath>
    <clipPath
       clipPathUnits="userSpaceOnUse"
       id="clipPath21154">
      <path
         d="m 2711.97,473.09 v 18.832 c 27.63,-85.711 41.49,-129.242 41.49,-130.59 v -18.844 c 0,1.352 -13.86,44.883 -41.49,130.602"
         id="path21152" />
    </clipPath>
    <clipPath
       clipPathUnits="userSpaceOnUse"
       id="clipPath21166">
      <path
         d="m 2637.9,473.09 v 18.832 c 0.72,1.719 6.57,3.25 17.64,4.418 11.07,1.172 22.86,1.711 35.55,1.711 12.6,0 19.62,-2.071 20.88,-6.129 V 473.09 c -1.26,4.051 -8.28,6.121 -20.88,6.121 -12.69,0 -24.48,-0.539 -35.55,-1.711 -11.07,-1.168 -16.92,-2.699 -17.64,-4.41"
         id="path21164" />
    </clipPath>
    <clipPath
       clipPathUnits="userSpaceOnUse"
       id="clipPath21182">
      <path
         d="m 2818.98,407.34 v 18.84 c 0,-15.379 0.63,-25.629 1.89,-30.578 1.26,-5.043 3.87,-7.473 8.01,-7.473 4.05,0 6.66,2.43 7.74,7.293 1.08,4.769 1.71,15.109 1.71,30.937 V 407.52 c 0,-15.829 -0.63,-26.168 -1.71,-30.942 -1.08,-4.859 -3.69,-7.277 -7.74,-7.277 -4.14,0 -6.75,2.418 -8.01,7.461 -1.26,4.949 -1.89,15.199 -1.89,30.578"
         id="path21180" />
    </clipPath>
    <clipPath
       clipPathUnits="userSpaceOnUse"
       id="clipPath21198">
      <path
         d="m 2896.83,474.711 v 18.84 c 1.8,-2.43 2.61,-4.59 2.61,-6.391 v -18.84 c 0,1.809 -0.81,3.969 -2.61,6.391"
         id="path21196" />
    </clipPath>
    <clipPath
       clipPathUnits="userSpaceOnUse"
       id="clipPath21210">
      <path
         d="m 2816.19,474.711 v 18.84 c 1.89,-2.43 2.79,-4.59 2.79,-6.391 v -18.84 c 0,1.809 -0.9,3.969 -2.79,6.391"
         id="path21208" />
    </clipPath>
    <clipPath
       clipPathUnits="userSpaceOnUse"
       id="clipPath21222">
      <path
         d="m 2757.78,466.07 v 18.84 c 0,3.422 4.14,6.481 12.42,9.27 8.28,2.699 17.91,4.039 28.8,4.039 8.82,0 14.49,-1.52 17.19,-4.668 v -18.84 c -2.7,3.148 -8.37,4.668 -17.19,4.668 -10.89,0 -20.52,-1.34 -28.8,-4.039 -8.28,-2.789 -12.42,-5.852 -12.42,-9.27"
         id="path21220" />
    </clipPath>
    <clipPath
       clipPathUnits="userSpaceOnUse"
       id="clipPath21236">
      <path
         d="m 2879.28,479.379 v 18.84 c 9.27,0 15.03,-1.52 17.55,-4.668 v -18.84 c -2.52,3.148 -8.28,4.668 -17.55,4.668"
         id="path21234" />
    </clipPath>
    <clipPath
       clipPathUnits="userSpaceOnUse"
       id="clipPath21248">
      <path
         d="m 2838.33,466.07 v 18.84 c 0,3.422 4.05,6.481 12.33,9.27 8.28,2.699 17.82,4.039 28.62,4.039 v -18.84 c -10.8,0 -20.34,-1.34 -28.62,-4.039 -8.28,-2.789 -12.33,-5.852 -12.33,-9.27"
         id="path21246" />
    </clipPath>
    <clipPath
       clipPathUnits="userSpaceOnUse"
       id="clipPath21262">
      <path
         d="m 3040.92,479.211 v 18.84 c 2.16,0 3.69,-1.903 4.5,-5.762 0.81,-3.769 1.17,-9.359 1.17,-16.551 v -18.84 c 0,7.192 -0.36,12.782 -1.17,16.551 -0.81,3.86 -2.34,5.762 -4.5,5.762"
         id="path21260" />
    </clipPath>
    <clipPath
       clipPathUnits="userSpaceOnUse"
       id="clipPath21276">
      <path
         d="m 2912.58,449.621 v 18.84 c 0,7.551 0.9,14.379 2.7,20.5 1.71,6.027 4.05,9.09 7.02,9.09 v -18.84 c -2.97,0 -5.31,-3.063 -7.02,-9.082 -1.8,-6.129 -2.7,-12.957 -2.7,-20.508"
         id="path21274" />
    </clipPath>
    <clipPath
       clipPathUnits="userSpaceOnUse"
       id="clipPath21292">
      <path
         d="m 3126.6,367.141 v 18.839 c 1.8,-1.992 4.23,-2.968 7.29,-2.968 3.06,0 5.49,0.976 7.2,2.968 v -18.839 c -1.71,-1.981 -4.14,-2.969 -7.2,-2.969 -3.06,0 -5.49,0.988 -7.29,2.969"
         id="path21290" />
    </clipPath>
    <clipPath
       clipPathUnits="userSpaceOnUse"
       id="clipPath21306">
      <path
         d="m 3141.09,367.141 v 18.839 c 1.8,1.969 3.24,6.2 4.41,12.668 v -18.839 c -1.17,-6.469 -2.61,-10.7 -4.41,-12.668"
         id="path21304" />
    </clipPath>
    <clipPath
       clipPathUnits="userSpaceOnUse"
       id="clipPath21316">
      <path
         d="m 3145.5,379.809 v 18.839 c 1.17,6.481 1.71,15.571 1.71,27.172 v -18.84 c 0,-11.601 -0.54,-20.691 -1.71,-27.171"
         id="path21314" />
    </clipPath>
    <clipPath
       clipPathUnits="userSpaceOnUse"
       id="clipPath21326">
      <path
         d="m 3120.48,406.98 v 18.84 c 0,-11.601 0.54,-20.691 1.8,-27.172 1.17,-6.468 2.61,-10.699 4.32,-12.668 v -18.839 c -1.71,1.968 -3.15,6.199 -4.32,12.668 -1.26,6.48 -1.8,15.57 -1.8,27.171"
         id="path21324" />
    </clipPath>
    <clipPath
       clipPathUnits="userSpaceOnUse"
       id="clipPath21338">
      <path
         d="m 3188.25,467.969 v 18.84 c 15.3,-10.438 23.04,-30.231 23.04,-59.368 v -18.839 c 0,29.148 -7.74,48.929 -23.04,59.367"
         id="path21336" />
    </clipPath>
    <clipPath
       clipPathUnits="userSpaceOnUse"
       id="clipPath21350">
      <path
         d="m 3056.49,408.602 v 18.839 c 0,12.77 1.98,24.02 6.03,33.547 3.96,9.532 9.54,17.094 16.74,22.75 14.04,10.891 32.22,16.383 54.63,16.383 11.52,0 21.6,-1 30.15,-2.883 8.55,-1.898 16.56,-5.398 24.21,-10.429 v -18.84 c -7.65,5.031 -15.66,8.531 -24.21,10.429 -8.55,1.883 -18.63,2.883 -30.15,2.883 -22.41,0 -40.59,-5.492 -54.63,-16.383 -7.2,-5.656 -12.78,-13.218 -16.74,-22.75 -4.05,-9.527 -6.03,-20.769 -6.03,-33.546"
         id="path21348" />
    </clipPath>
    <clipPath
       clipPathUnits="userSpaceOnUse"
       id="clipPath22250">
      <path
         d="m 3594.42,479.379 v 18.84 c 9.36,0 15.48,-1.789 18.36,-5.489 1.08,-1.339 1.53,-2.691 1.53,-4.128 V 469.77 c 0,1.429 -0.45,2.781 -1.53,4.128 -2.88,3.692 -9,5.481 -18.36,5.481"
         id="path22248" />
    </clipPath>
    <clipPath
       clipPathUnits="userSpaceOnUse"
       id="clipPath22264">
      <path
         d="m 3553.2,466.07 v 18.84 c 0,3.059 4.23,6.031 12.69,8.91 8.46,2.969 18,4.399 28.53,4.399 v -18.84 c -10.53,0 -20.07,-1.43 -28.53,-4.399 -8.46,-2.878 -12.69,-5.851 -12.69,-8.91"
         id="path22262" />
    </clipPath>
    <clipPath
       clipPathUnits="userSpaceOnUse"
       id="clipPath22282">
      <path
         d="m 3772.62,474.262 v 18.84 c 1.8,-2.25 2.61,-4.411 2.61,-6.301 v -18.84 c 0,1.891 -0.81,4.051 -2.61,6.301"
         id="path22280" />
    </clipPath>
    <clipPath
       clipPathUnits="userSpaceOnUse"
       id="clipPath22294">
      <path
         d="m 3681.63,478.762 v 18.84 c 4.95,-0.641 8.46,-3.614 10.53,-8.731 v -18.84 c -2.07,5.129 -5.58,8.098 -10.53,8.731"
         id="path22292" />
    </clipPath>
    <clipPath
       clipPathUnits="userSpaceOnUse"
       id="clipPath22306">
      <path
         d="m 3631.86,465.449 v 18.84 c 0,3.422 4.23,6.563 12.6,9.441 8.46,2.872 18,4.321 28.62,4.321 3.78,0 6.66,-0.09 8.55,-0.449 v -18.84 c -1.89,0.359 -4.77,0.449 -8.55,0.449 -10.62,0 -20.16,-1.449 -28.62,-4.32 -8.37,-2.879 -12.6,-6.02 -12.6,-9.442"
         id="path22304" />
    </clipPath>
    <clipPath
       clipPathUnits="userSpaceOnUse"
       id="clipPath22318">
      <path
         d="m 3755.07,479.211 v 18.84 c 9.27,0 15.12,-1.621 17.55,-4.949 v -18.84 c -2.43,3.328 -8.28,4.949 -17.55,4.949"
         id="path22316" />
    </clipPath>
    <clipPath
       clipPathUnits="userSpaceOnUse"
       id="clipPath22330">
      <path
         d="m 3714.12,465.449 v 18.84 c 0,3.422 4.14,6.563 12.51,9.441 8.28,2.872 17.82,4.321 28.44,4.321 v -18.84 c -10.62,0 -20.16,-1.449 -28.44,-4.32 -8.37,-2.879 -12.51,-6.02 -12.51,-9.442"
         id="path22328" />
    </clipPath>
    <clipPath
       clipPathUnits="userSpaceOnUse"
       id="clipPath22344">
      <path
         d="m 3853.98,420.469 v 18.84 c 19.44,0.812 32.49,1.171 39.06,1.171 2.16,0 3.69,-1.082 4.5,-3.23 0.81,-2.16 1.17,-6.391 1.17,-12.602 v -18.839 c 0,6.211 -0.36,10.441 -1.17,12.601 -0.81,2.16 -2.34,3.231 -4.5,3.231 -6.57,0 -19.62,-0.36 -39.06,-1.172"
         id="path22342" />
    </clipPath>
    <clipPath
       clipPathUnits="userSpaceOnUse"
       id="clipPath22358">
      <path
         d="m 3792.78,469.582 v 18.84 c 0,3.5 1.89,6.117 5.76,7.558 v -18.839 c -3.87,-1.442 -5.76,-4.051 -5.76,-7.559"
         id="path22356" />
    </clipPath>
    <clipPath
       clipPathUnits="userSpaceOnUse"
       id="clipPath22368">
      <path
         d="m 3901.32,479.379 v 18.84 c 3.05,0 4.68,-5.117 4.68,-15.469 v -18.828 c 0,10.34 -1.63,15.457 -4.68,15.457"
         id="path22366" />
    </clipPath>
    <clipPath
       clipPathUnits="userSpaceOnUse"
       id="clipPath22382">
      <path
         d="m 3798.54,477.141 v 18.839 c 3.78,1.532 10.98,2.239 21.42,2.239 v -18.84 c -10.44,0 -17.64,-0.707 -21.42,-2.238"
         id="path22380" />
    </clipPath>
    <clipPath
       clipPathUnits="userSpaceOnUse"
       id="clipPath22398">
      <path
         d="m 3988.17,367.141 v 18.839 c 1.8,-1.992 4.14,-2.968 7.29,-2.968 3.06,0 5.4,0.976 7.2,2.968 v -18.839 c -1.8,-1.981 -4.14,-2.969 -7.2,-2.969 -3.15,0 -5.49,0.988 -7.29,2.969"
         id="path22396" />
    </clipPath>
    <clipPath
       clipPathUnits="userSpaceOnUse"
       id="clipPath22412">
      <path
         d="m 4002.66,367.141 v 18.839 c 1.71,1.969 3.24,6.2 4.41,12.668 v -18.839 c -1.17,-6.469 -2.7,-10.7 -4.41,-12.668"
         id="path22410" />
    </clipPath>
    <clipPath
       clipPathUnits="userSpaceOnUse"
       id="clipPath22422">
      <path
         d="m 4007.07,379.809 v 18.839 c 1.17,6.481 1.71,15.571 1.71,27.172 v -18.84 c 0,-11.601 -0.54,-20.691 -1.71,-27.171"
         id="path22420" />
    </clipPath>
    <clipPath
       clipPathUnits="userSpaceOnUse"
       id="clipPath22432">
      <path
         d="m 3982.05,406.98 v 18.84 c 0,-11.601 0.54,-20.691 1.71,-27.172 1.17,-6.468 2.7,-10.699 4.41,-12.668 v -18.839 c -1.71,1.968 -3.24,6.199 -4.41,12.668 -1.17,6.48 -1.71,15.57 -1.71,27.171"
         id="path22430" />
    </clipPath>
    <clipPath
       clipPathUnits="userSpaceOnUse"
       id="clipPath22456">
      <path
         d="m 3918.06,408.602 v 18.839 c 0,12.77 1.98,24.02 6.03,33.547 3.96,9.532 9.54,17.094 16.74,22.75 14.04,10.891 32.22,16.383 54.63,16.383 11.52,0 21.6,-1 30.15,-2.883 8.55,-1.898 16.56,-5.398 24.21,-10.429 v -18.84 c -7.65,5.031 -15.66,8.531 -24.21,10.429 -8.55,1.883 -18.63,2.883 -30.15,2.883 -22.41,0 -40.59,-5.492 -54.63,-16.383 -7.2,-5.656 -12.78,-13.218 -16.74,-22.75 -4.05,-9.527 -6.03,-20.769 -6.03,-33.546"
         id="path22454" />
    </clipPath>
    <clipPath
       clipPathUnits="userSpaceOnUse"
       id="clipPath22444">
      <path
         d="m 4049.82,467.969 v 18.84 c 15.3,-10.438 23.04,-30.231 23.04,-59.368 v -18.839 c 0,29.148 -7.74,48.929 -23.04,59.367"
         id="path22442" />
    </clipPath>
    <clipPath
       clipPathUnits="userSpaceOnUse"
       id="clipPath22250-4">
      <path
         d="m 3594.42,479.379 v 18.84 c 9.36,0 15.48,-1.789 18.36,-5.489 1.08,-1.339 1.53,-2.691 1.53,-4.128 V 469.77 c 0,1.429 -0.45,2.781 -1.53,4.128 -2.88,3.692 -9,5.481 -18.36,5.481"
         id="path22248-7" />
    </clipPath>
    <clipPath
       clipPathUnits="userSpaceOnUse"
       id="clipPath22264-9">
      <path
         d="m 3553.2,466.07 v 18.84 c 0,3.059 4.23,6.031 12.69,8.91 8.46,2.969 18,4.399 28.53,4.399 v -18.84 c -10.53,0 -20.07,-1.43 -28.53,-4.399 -8.46,-2.878 -12.69,-5.851 -12.69,-8.91"
         id="path22262-4" />
    </clipPath>
    <clipPath
       clipPathUnits="userSpaceOnUse"
       id="clipPath22282-2">
      <path
         d="m 3772.62,474.262 v 18.84 c 1.8,-2.25 2.61,-4.411 2.61,-6.301 v -18.84 c 0,1.891 -0.81,4.051 -2.61,6.301"
         id="path22280-5" />
    </clipPath>
    <clipPath
       clipPathUnits="userSpaceOnUse"
       id="clipPath22294-3">
      <path
         d="m 3681.63,478.762 v 18.84 c 4.95,-0.641 8.46,-3.614 10.53,-8.731 v -18.84 c -2.07,5.129 -5.58,8.098 -10.53,8.731"
         id="path22292-4" />
    </clipPath>
    <clipPath
       clipPathUnits="userSpaceOnUse"
       id="clipPath22306-1">
      <path
         d="m 3631.86,465.449 v 18.84 c 0,3.422 4.23,6.563 12.6,9.441 8.46,2.872 18,4.321 28.62,4.321 3.78,0 6.66,-0.09 8.55,-0.449 v -18.84 c -1.89,0.359 -4.77,0.449 -8.55,0.449 -10.62,0 -20.16,-1.449 -28.62,-4.32 -8.37,-2.879 -12.6,-6.02 -12.6,-9.442"
         id="path22304-7" />
    </clipPath>
    <clipPath
       clipPathUnits="userSpaceOnUse"
       id="clipPath22318-0">
      <path
         d="m 3755.07,479.211 v 18.84 c 9.27,0 15.12,-1.621 17.55,-4.949 v -18.84 c -2.43,3.328 -8.28,4.949 -17.55,4.949"
         id="path22316-2" />
    </clipPath>
    <clipPath
       clipPathUnits="userSpaceOnUse"
       id="clipPath22330-0">
      <path
         d="m 3714.12,465.449 v 18.84 c 0,3.422 4.14,6.563 12.51,9.441 8.28,2.872 17.82,4.321 28.44,4.321 v -18.84 c -10.62,0 -20.16,-1.449 -28.44,-4.32 -8.37,-2.879 -12.51,-6.02 -12.51,-9.442"
         id="path22328-5" />
    </clipPath>
    <clipPath
       clipPathUnits="userSpaceOnUse"
       id="clipPath22344-5">
      <path
         d="m 3853.98,420.469 v 18.84 c 19.44,0.812 32.49,1.171 39.06,1.171 2.16,0 3.69,-1.082 4.5,-3.23 0.81,-2.16 1.17,-6.391 1.17,-12.602 v -18.839 c 0,6.211 -0.36,10.441 -1.17,12.601 -0.81,2.16 -2.34,3.231 -4.5,3.231 -6.57,0 -19.62,-0.36 -39.06,-1.172"
         id="path22342-6" />
    </clipPath>
    <clipPath
       clipPathUnits="userSpaceOnUse"
       id="clipPath22358-2">
      <path
         d="m 3792.78,469.582 v 18.84 c 0,3.5 1.89,6.117 5.76,7.558 v -18.839 c -3.87,-1.442 -5.76,-4.051 -5.76,-7.559"
         id="path22356-3" />
    </clipPath>
    <clipPath
       clipPathUnits="userSpaceOnUse"
       id="clipPath22368-0">
      <path
         d="m 3901.32,479.379 v 18.84 c 3.05,0 4.68,-5.117 4.68,-15.469 v -18.828 c 0,10.34 -1.63,15.457 -4.68,15.457"
         id="path22366-0" />
    </clipPath>
    <clipPath
       clipPathUnits="userSpaceOnUse"
       id="clipPath22382-4">
      <path
         d="m 3798.54,477.141 v 18.839 c 3.78,1.532 10.98,2.239 21.42,2.239 v -18.84 c -10.44,0 -17.64,-0.707 -21.42,-2.238"
         id="path22380-8" />
    </clipPath>
    <clipPath
       clipPathUnits="userSpaceOnUse"
       id="clipPath22398-8">
      <path
         d="m 3988.17,367.141 v 18.839 c 1.8,-1.992 4.14,-2.968 7.29,-2.968 3.06,0 5.4,0.976 7.2,2.968 v -18.839 c -1.8,-1.981 -4.14,-2.969 -7.2,-2.969 -3.15,0 -5.49,0.988 -7.29,2.969"
         id="path22396-2" />
    </clipPath>
    <clipPath
       clipPathUnits="userSpaceOnUse"
       id="clipPath22412-8">
      <path
         d="m 4002.66,367.141 v 18.839 c 1.71,1.969 3.24,6.2 4.41,12.668 v -18.839 c -1.17,-6.469 -2.7,-10.7 -4.41,-12.668"
         id="path22410-1" />
    </clipPath>
    <clipPath
       clipPathUnits="userSpaceOnUse"
       id="clipPath22422-7">
      <path
         d="m 4007.07,379.809 v 18.839 c 1.17,6.481 1.71,15.571 1.71,27.172 v -18.84 c 0,-11.601 -0.54,-20.691 -1.71,-27.171"
         id="path22420-4" />
    </clipPath>
    <clipPath
       clipPathUnits="userSpaceOnUse"
       id="clipPath22432-2">
      <path
         d="m 3982.05,406.98 v 18.84 c 0,-11.601 0.54,-20.691 1.71,-27.172 1.17,-6.468 2.7,-10.699 4.41,-12.668 v -18.839 c -1.71,1.968 -3.24,6.199 -4.41,12.668 -1.17,6.48 -1.71,15.57 -1.71,27.171"
         id="path22430-7" />
    </clipPath>
    <clipPath
       clipPathUnits="userSpaceOnUse"
       id="clipPath22456-3">
      <path
         d="m 3918.06,408.602 v 18.839 c 0,12.77 1.98,24.02 6.03,33.547 3.96,9.532 9.54,17.094 16.74,22.75 14.04,10.891 32.22,16.383 54.63,16.383 11.52,0 21.6,-1 30.15,-2.883 8.55,-1.898 16.56,-5.398 24.21,-10.429 v -18.84 c -7.65,5.031 -15.66,8.531 -24.21,10.429 -8.55,1.883 -18.63,2.883 -30.15,2.883 -22.41,0 -40.59,-5.492 -54.63,-16.383 -7.2,-5.656 -12.78,-13.218 -16.74,-22.75 -4.05,-9.527 -6.03,-20.769 -6.03,-33.546"
         id="path22454-5" />
    </clipPath>
  </defs>
  <g
     inkscape:label="Layer 1"
     inkscape:groupmode="layer"
     id="layer1">
    <g
       id="g49018"
       style="display:inline"
       transform="matrix(0.03527778,0,0,-0.03527778,-71.027164,102.83798)"
       inkscape:export-filename="Buttons\T_SpinButton.png"
       inkscape:export-xdpi="300"
       inkscape:export-ydpi="300">
      <g
         id="g19914">
        <g
           id="g19916"
           clip-path="url(#clipPath19920)">
          <path
             d="m 2748.59,797.93 v 53.09 c 0,8.32 0.57,16.878 1.72,25.691 2.43,18.598 7.38,28.488 14.58,29.57 V 853.18 c -7.2,-1.071 -12.15,-10.961 -14.58,-29.571 -1.15,-8.8 -1.72,-17.359 -1.72,-25.679"
             style="fill:#501d0a;fill-opacity:1;fill-rule:nonzero;stroke:none"
             id="path19922" />
        </g>
      </g>
      <g
         id="g19924">
        <g
           id="g19926"
           clip-path="url(#clipPath19930)">
          <path
             d="m 2764.89,853.18 v 53.101 c 2.52,0.008 16.74,-1.902 42.66,-6.031 19.95,-3.18 36.07,-4.852 48.39,-4.852 4.35,0 8.23,0.211 11.64,0.641 1.49,0.172 2.92,0.371 4.29,0.563 V 843.52 c -1.37,-0.211 -2.8,-0.399 -4.29,-0.579 -3.41,-0.421 -7.29,-0.64 -11.64,-0.64 -12.32,0 -28.44,1.668 -48.39,4.871 -25.92,4.117 -40.14,6.019 -42.66,6.008"
             style="fill:#59220b;fill-opacity:1;fill-rule:nonzero;stroke:none"
             id="path19932" />
          <path
             d="m 2871.87,843.52 v 53.082 c 10.69,1.558 17.63,3.628 20.82,6.257 3.21,2.661 4.79,5.86 4.79,9.789 v -53.097 c 0,-3.922 -1.58,-7.121 -4.79,-9.781 -3.19,-2.629 -10.13,-4.688 -20.82,-6.25"
             style="fill:#501d0a;fill-opacity:1;fill-rule:nonzero;stroke:none"
             id="path19934" />
        </g>
      </g>
      <g
         id="g19936">
        <g
           id="g19938"
           clip-path="url(#clipPath19942)">
          <path
             d="m 2878.11,974.879 v 53.091 l 0.06,-53.548 z"
             style="fill:#59220b;fill-opacity:1;fill-rule:nonzero;stroke:none"
             id="path19944" />
          <path
             d="m 2878.17,974.422 v 53.098 c 0.75,-4.71 4.95,-8.07 12.45,-10.24 3.39,-0.98 7.08,-1.86 11.08,-2.67 v -53.09 c -4,0.8 -7.69,1.691 -11.08,2.66 -7.5,2.179 -11.7,5.539 -12.45,10.242"
             style="fill:#61260d;fill-opacity:1;fill-rule:nonzero;stroke:none"
             id="path19946" />
          <path
             d="m 2901.7,961.52 v 53.09 c 5.26,-1.06 11.06,-1.96 17.45,-2.73 4.86,-0.58 9.95,-1.4 15.23,-2.46 v -53.088 c -5.28,1.059 -10.37,1.879 -15.23,2.457 -6.39,0.77 -12.19,1.68 -17.45,2.731"
             style="fill:#59220b;fill-opacity:1;fill-rule:nonzero;stroke:none"
             id="path19948" />
          <path
             d="m 2934.38,956.332 v 53.088 c 6.94,-1.39 14.24,-3.2 21.85,-5.45 13.5,-3.95 26.1,-8.888 37.8,-14.919 11.7,-5.93 21.69,-15.09 30.06,-27.219 6.86,-9.953 11.29,-21.512 13.37,-34.652 v -53.09 c -2.08,13.14 -6.51,24.699 -13.37,34.64 -8.37,12.129 -18.36,21.301 -30.06,27.239 -11.7,6.011 -24.3,10.953 -37.8,14.91 -7.61,2.242 -14.91,4.062 -21.85,5.453"
             style="fill:#61260d;fill-opacity:1;fill-rule:nonzero;stroke:none"
             id="path19950" />
          <path
             d="m 3037.46,874.09 v 53.09 c 0.46,-2.899 0.8,-5.891 1.03,-8.95 0.19,-2.421 0.29,-4.82 0.29,-7.199 V 857.93 c 0,2.379 -0.1,4.781 -0.29,7.211 -0.23,3.058 -0.57,6.039 -1.03,8.949"
             style="fill:#59220b;fill-opacity:1;fill-rule:nonzero;stroke:none"
             id="path19952" />
        </g>
      </g>
      <g
         id="g19954">
        <g
           id="g19956"
           clip-path="url(#clipPath19960)">
          <path
             d="m 2878.01,976.449 v 53.081 l 0.1,-1.56 v -53.091 l -0.1,1.57"
             style="fill:#59220b;fill-opacity:1;fill-rule:nonzero;stroke:none"
             id="path19962" />
        </g>
      </g>
      <g
         id="g19964">
        <g
           id="g19966"
           clip-path="url(#clipPath19970)">
          <path
             d="m 2925.65,1083.47 v 53.09 c 6.81,0 13.34,-0.16 19.6,-0.47 17.64,-0.88 31.76,-2.44 42.29,-4.56 v -53.08 c -10.53,2.11 -24.65,3.68 -42.29,4.55 -6.26,0.31 -12.79,0.47 -19.6,0.47"
             style="fill:#59220b;fill-opacity:1;fill-rule:nonzero;stroke:none"
             id="path19972" />
          <path
             d="m 2987.54,1078.45 v 53.08 c 4.63,-0.92 8.56,-1.95 11.8,-3.07 10.27,-3.66 15.74,-7.64 16.42,-11.89 v -53.08 c -0.68,4.23 -6.15,8.22 -16.42,11.87 -3.24,1.12 -7.17,2.16 -11.8,3.09"
             style="fill:#61260d;fill-opacity:1;fill-rule:nonzero;stroke:none"
             id="path19974" />
          <path
             d="m 3015.76,1063.49 v 53.08 c 0.24,-2.74 0.33,-5.1 0.33,-7.48 v -53.08 c 0,2.38 -0.09,4.72 -0.28,7.04 l -0.05,0.44"
             style="fill:#59220b;fill-opacity:1;fill-rule:nonzero;stroke:none"
             id="path19976" />
        </g>
      </g>
      <g
         id="g19978">
        <g
           id="g19980"
           clip-path="url(#clipPath19984)">
          <path
             d="m 2730.74,981.02 v 53.09 c 0,52.09 38.51,85.36 115.95,96.7 v -53.09 c -77.44,-11.33 -115.95,-44.6 -115.95,-96.7"
             style="fill:#501d0a;fill-opacity:1;fill-rule:nonzero;stroke:none"
             id="path19986" />
          <path
             d="m 2846.69,1077.72 v 53.09 c 2.8,0.41 5.65,0.79 8.56,1.14 26,3.13 49.5,4.61 70.4,4.61 v -53.09 c -20.9,0 -44.4,-1.49 -70.4,-4.6 -2.91,-0.35 -5.76,-0.74 -8.56,-1.15"
             style="fill:#59220b;fill-opacity:1;fill-rule:nonzero;stroke:none"
             id="path19988" />
        </g>
      </g>
      <path
         d="m 2925.65,1083.47 c 6.81,0 13.34,-0.16 19.6,-0.47 25.38,-1.26 43.47,-3.96 54.09,-7.64 10.62,-3.78 16.11,-7.91 16.47,-12.31 1.26,-15.46 -1.71,-32.44 -8.64,-50.87 -6.84,-18.52 -14.13,-28.141 -21.96,-28.758 -2.07,-0.024 -6.45,0.949 -13.59,2.777 -18.58,5.18 -34.56,7.762 -47.77,7.762 -3.3,0 -6.43,-0.152 -9.38,-0.473 -14.85,-1.617 -24.75,-3.957 -29.79,-6.929 -4.95,-2.969 -7.2,-6.821 -6.57,-11.68 0.54,-4.949 4.77,-8.449 12.51,-10.699 7.83,-2.25 17.28,-4.039 28.53,-5.391 11.25,-1.348 23.67,-3.957 37.08,-7.91 13.5,-3.957 26.1,-8.899 37.8,-14.91 11.7,-5.938 21.69,-15.11 30.06,-27.239 8.37,-12.14 13.14,-26.691 14.4,-43.589 1.44,-17.801 -2.43,-34.43 -11.25,-49.7 -5.49,-9.441 -12.78,-17.793 -21.87,-25.171 -9.09,-7.372 -22.05,-14.02 -38.79,-20.051 -16.74,-5.918 -38.61,-10.418 -65.61,-13.559 -21.69,-2.601 -42.69,-3.93 -62.99,-3.93 -4.97,0 -9.89,0.079 -14.77,0.239 -24.93,0.722 -43.02,2.613 -54.36,6.019 -11.34,3.332 -17.46,7.383 -18.18,12.051 -2.61,16.449 -2.79,33.973 -0.36,52.57 2.43,18.61 7.38,28.5 14.58,29.571 2.52,0.011 16.74,-1.891 42.66,-6.008 19.95,-3.203 36.07,-4.871 48.39,-4.871 4.35,0 8.23,0.219 11.64,0.64 13.14,1.618 21.51,3.868 25.11,6.829 3.69,3.05 5.22,6.832 4.68,11.601 -0.54,4.75 -4.68,8.527 -12.33,11.32 -7.74,2.879 -17.19,5.028 -28.44,6.469 -11.34,1.442 -23.67,3.961 -37.17,7.551 -13.41,3.59 -26.19,7.82 -38.07,12.668 -11.88,4.863 -22.5,12.769 -31.68,23.551 -9.18,10.781 -14.94,23.82 -17.37,39.09 -10.35,65.08 30.42,105.61 122.94,116.85 26,3.11 49.5,4.6 70.4,4.6"
         style="fill:#853913;fill-opacity:1;fill-rule:nonzero;stroke:none"
         id="path19990" />
      <g
         id="g19992">
        <g
           id="g19994"
           clip-path="url(#clipPath19998)">
          <path
             d="m 3208.32,864.602 v 53.097 c 0.81,-22.558 1.53,-45.219 2.25,-67.777 V 796.84 c -0.72,22.551 -1.44,45.199 -2.25,67.762"
             style="fill:#59220b;fill-opacity:1;fill-rule:nonzero;stroke:none"
             id="path20000" />
        </g>
      </g>
      <g
         id="g20002">
        <g
           id="g20004"
           clip-path="url(#clipPath20008)">
          <path
             d="m 3206.43,938.66 v 53.09 c 4.05,0.18 8.1,0.27 12.06,0.359 v -53.097 c -3.96,-0.082 -8.01,-0.172 -12.06,-0.352"
             style="fill:#59220b;fill-opacity:1;fill-rule:nonzero;stroke:none"
             id="path20010" />
        </g>
      </g>
      <g
         id="g20012">
        <g
           id="g20014"
           clip-path="url(#clipPath20018)">
          <path
             d="m 3218.49,939.012 v 53.097 c 2.46,0.11 4.71,0.301 6.76,0.602 v -53.09 c -2.05,-0.301 -4.3,-0.5 -6.76,-0.609"
             style="fill:#59220b;fill-opacity:1;fill-rule:nonzero;stroke:none"
             id="path20020" />
          <path
             d="m 3225.25,939.621 v 53.09 c 3.29,0.48 6.06,1.23 8.27,2.277 3.69,1.801 6.84,6.292 9.54,13.652 v -53.081 c -2.7,-7.379 -5.85,-11.868 -9.54,-13.668 -2.21,-1.051 -4.98,-1.789 -8.27,-2.27"
             style="fill:#501d0a;fill-opacity:1;fill-rule:nonzero;stroke:none"
             id="path20022" />
        </g>
      </g>
      <g
         id="g20024">
        <g
           id="g20026"
           clip-path="url(#clipPath20030)">
          <path
             d="m 3243.06,955.559 v 53.081 c 2.45,6.69 3.64,15.73 3.64,27.28 v -53.1 c 0,-11.539 -1.19,-20.582 -3.64,-27.261"
             style="fill:#501d0a;fill-opacity:1;fill-rule:nonzero;stroke:none"
             id="path20032" />
        </g>
      </g>
      <g
         id="g20034">
        <g
           id="g20036"
           clip-path="url(#clipPath20040)">
          <path
             d="m 3203.46,1030.16 v 53.08 c 0.99,-30.47 1.98,-60.94 2.97,-91.49 v -53.09 c -0.99,30.559 -1.98,61.031 -2.97,91.5"
             style="fill:#59220b;fill-opacity:1;fill-rule:nonzero;stroke:none"
             id="path20042" />
        </g>
      </g>
      <g
         id="g20044">
        <g
           id="g20046"
           clip-path="url(#clipPath20050)">
          <path
             d="m 3374.37,1062.32 v 53.1 c 6.61,-11.29 11.07,-24.47 13.44,-39.55 v -53.09 c -2.37,15.07 -6.83,28.26 -13.44,39.54"
             style="fill:#61260d;fill-opacity:1;fill-rule:nonzero;stroke:none"
             id="path20052" />
          <path
             d="m 3387.81,1022.78 v 53.09 c 1.39,-8.73 2.06,-18.11 2.06,-28.12 v -53.078 c 0,9.998 -0.67,19.368 -2.06,28.108"
             style="fill:#59220b;fill-opacity:1;fill-rule:nonzero;stroke:none"
             id="path20054" />
        </g>
      </g>
      <g
         id="g20056">
        <g
           id="g20058"
           clip-path="url(#clipPath20062)">
          <path
             d="m 3056.13,1076.35 v 53.09 c -0.6,8.54 17.59,16.14 54.67,21.55 v -53.1 c -37.08,-5.41 -55.27,-13.01 -54.67,-21.54"
             style="fill:#501d0a;fill-opacity:1;fill-rule:nonzero;stroke:none"
             id="path20064" />
          <path
             d="m 3110.8,1097.89 v 53.1 c 23.85,3.48 55.51,6.05 95,7.39 10.61,0.31 20.6,0.47 29.95,0.47 33.58,0 59.11,-1.97 76.55,-5.46 v -53.09 c -17.44,3.5 -42.97,5.45 -76.55,5.45 -9.35,0 -19.34,-0.14 -29.95,-0.46 -39.49,-1.33 -71.15,-3.91 -95,-7.4"
             style="fill:#59220b;fill-opacity:1;fill-rule:nonzero;stroke:none"
             id="path20066" />
          <path
             d="m 3312.3,1100.3 v 53.09 c 5.59,-1.11 10.36,-2.39 14.28,-3.82 23.76,-8.36 39.6,-19.77 47.79,-34.15 v -53.1 c -8.19,14.39 -24.03,25.8 -47.79,34.16 -3.92,1.42 -8.69,2.7 -14.28,3.82"
             style="fill:#61260d;fill-opacity:1;fill-rule:nonzero;stroke:none"
             id="path20068" />
        </g>
      </g>
      <path
         d="m 3243.06,955.559 c 2.7,7.371 3.87,17.613 3.6,30.91 -0.27,13.222 -2.07,23.281 -5.49,30.201 -3.42,6.92 -6.75,11.05 -10.08,12.23 -2.96,1.11 -6.33,1.73 -10.14,1.73 l -1.47,-0.02 c -5.4,-0.1 -10.71,-0.28 -16.02,-0.45 0.99,-30.469 1.98,-60.941 2.97,-91.5 4.05,0.18 8.1,0.27 12.06,0.352 6.39,0.277 11.43,1.179 15.03,2.879 3.69,1.8 6.84,6.289 9.54,13.668 z m 131.31,106.761 c 10.89,-18.6 15.93,-42.32 15.48,-71.179 -0.63,-39.629 -8.82,-68.121 -24.21,-85.832 -11.07,-13.02 -22.05,-21.469 -32.94,-25.34 -10.89,-3.867 -19.89,-6.649 -26.91,-8.27 -7.11,-1.711 -15.93,-3.058 -26.37,-4.129 -14.49,-1.351 -34.2,-2.25 -59.22,-3.058 -3.96,0.09 -7.92,0.09 -11.88,0.09 0.81,-22.563 1.53,-45.211 2.25,-67.762 0.09,-3.871 -9.63,-7.289 -29.16,-10.52 -19.53,-3.148 -39.15,-5.3 -58.68,-6.39 -8.05,-0.442 -14.93,-0.66 -20.62,-0.66 -8.17,0 -13.93,0.468 -17.27,1.468 -5.58,1.711 -8.55,4.774 -8.82,9.262 -6.66,95.449 -13.23,190.898 -19.89,286.35 -0.99,14.02 48.78,25.52 149.67,28.94 10.61,0.32 20.6,0.46 29.95,0.46 44.33,0 74.63,-3.41 90.83,-9.27 23.76,-8.36 39.6,-19.77 47.79,-34.16"
         style="fill:#853913;fill-opacity:1;fill-rule:nonzero;stroke:none"
         id="path20070" />
      <g
         id="g20072">
        <g
           id="g20074"
           clip-path="url(#clipPath20078)">
          <path
             d="m 3511.19,1098.79 v 53.09 c 4.27,0 8.61,-0.11 13.03,-0.33 7.15,-0.34 13.49,-1.07 19,-2.18 v -53.09 c -5.51,1.1 -11.85,1.84 -19,2.18 -4.42,0.22 -8.76,0.33 -13.03,0.33"
             style="fill:#59220b;fill-opacity:1;fill-rule:nonzero;stroke:none"
             id="path20080" />
          <path
             d="m 3543.22,1096.28 v 53.09 c 11.79,-2.36 19.88,-6.45 24.29,-12.2 1.7,-2.28 2.69,-4.51 3.03,-6.7 v -53.1 c -0.34,2.19 -1.33,4.43 -3.03,6.71 -4.41,5.75 -12.5,9.84 -24.29,12.2"
             style="fill:#61260d;fill-opacity:1;fill-rule:nonzero;stroke:none"
             id="path20082" />
          <path
             d="m 3570.54,1077.37 v 53.1 l 0.14,-1.79 v -53.08 l -0.14,1.77"
             style="fill:#59220b;fill-opacity:1;fill-rule:nonzero;stroke:none"
             id="path20084" />
        </g>
      </g>
      <g
         id="g20086">
        <g
           id="g20088"
           clip-path="url(#clipPath20092)">
          <path
             d="m 3418.38,795.289 v 53.102 c 2.16,92.668 4.41,185.239 6.57,277.719 0.18,6.57 10.44,12.85 30.87,18.61 7.44,2.1 15.2,3.74 23.27,4.92 v -53.1 c -8.07,-1.18 -15.83,-2.82 -23.27,-4.91 -20.43,-5.75 -30.69,-12.05 -30.87,-18.6 -2.16,-92.491 -4.41,-185.061 -6.57,-277.538 v -0.203"
             style="fill:#501d0a;fill-opacity:1;fill-rule:nonzero;stroke:none"
             id="path20094" />
          <path
             d="m 3479.09,1096.54 v 53.1 c 10.21,1.48 20.91,2.24 32.1,2.24 v -53.09 c -11.19,0 -21.89,-0.75 -32.1,-2.25"
             style="fill:#59220b;fill-opacity:1;fill-rule:nonzero;stroke:none"
             id="path20096" />
        </g>
      </g>
      <path
         d="m 3511.19,1098.79 c 4.27,0 8.61,-0.11 13.03,-0.33 22.41,-1.08 36.81,-5.93 43.29,-14.38 2.34,-3.14 3.33,-6.2 3.15,-9.17 -5.76,-95 -11.52,-190.09 -17.28,-285.09 -0.18,-3.332 -10.17,-5.3 -29.88,-6.199 -11,-0.5 -21.98,-0.75 -32.94,-0.75 -8.79,0 -17.57,0.16 -26.37,0.481 -19.8,0.718 -32.4,1.878 -37.8,3.687 -5.49,1.801 -8.1,4.582 -8.01,8.453 2.16,92.477 4.41,185.047 6.57,277.538 0.18,6.55 10.44,12.85 30.87,18.6 16.84,4.74 35.33,7.16 55.37,7.16"
         style="fill:#853913;fill-opacity:1;fill-rule:nonzero;stroke:none"
         id="path20098" />
      <path
         d="m 3791.52,939.82 v 53.102 l 2.07,-0.192 v -53.082 l -2.07,0.172"
         style="fill:#58210b;fill-opacity:1;fill-rule:nonzero;stroke:none"
         id="path20100" />
      <g
         id="g20102">
        <g
           id="g20104"
           clip-path="url(#clipPath20108)">
          <path
             d="m 3793.59,939.648 v 53.082 c 4.23,34.88 8.37,69.66 12.6,104.54 0.9,7.37 11.61,13.02 32.13,16.71 1.72,0.31 3.46,0.59 5.21,0.84 v -53.08 c -1.75,-0.26 -3.49,-0.54 -5.21,-0.85 -20.52,-3.68 -31.23,-9.35 -32.13,-16.72 -4.23,-34.87 -8.37,-69.65 -12.6,-104.522"
             style="fill:#501d0a;fill-opacity:1;fill-rule:nonzero;stroke:none"
             id="path20110" />
          <path
             d="m 3843.53,1061.74 v 53.08 c 8.75,1.28 17.91,1.93 27.48,1.93 11.48,0 23.56,-0.93 36.25,-2.77 3.16,-0.45 6.13,-0.96 8.93,-1.52 v -53.09 c -2.8,0.56 -5.77,1.07 -8.93,1.52 -12.69,1.84 -24.77,2.76 -36.25,2.76 -9.57,0 -18.73,-0.63 -27.48,-1.91"
             style="fill:#59220b;fill-opacity:1;fill-rule:nonzero;stroke:none"
             id="path20112" />
          <path
             d="m 3916.19,1059.37 v 53.09 c 16.6,-3.33 26.94,-8.53 31.03,-15.37 2.17,-3.65 3.51,-7.03 3.99,-10.09 v -53.08 c -0.48,3.05 -1.82,6.43 -3.99,10.07 -4.09,6.85 -14.43,12.05 -31.03,15.38"
             style="fill:#61260d;fill-opacity:1;fill-rule:nonzero;stroke:none"
             id="path20114" />
          <path
             d="M 3951.21,1033.92 V 1087 l 0.21,-2.53 v -53.09 l -0.21,2.54"
             style="fill:#59220b;fill-opacity:1;fill-rule:nonzero;stroke:none"
             id="path20116" />
        </g>
      </g>
      <g
         id="g20118">
        <g
           id="g20120"
           clip-path="url(#clipPath20124)">
          <path
             d="m 3687.03,1085.71 v 53.1 c 8.1,0 16.48,-0.42 25.11,-1.28 7.64,-0.67 13.61,-1.49 18.01,-2.36 v -53.1 c -4.4,0.88 -10.37,1.69 -18.01,2.36 -8.63,0.86 -17.01,1.28 -25.11,1.28"
             style="fill:#59220b;fill-opacity:1;fill-rule:nonzero;stroke:none"
             id="path20126" />
          <path
             d="m 3730.15,1082.07 v 53.1 l 2.33,-0.51 c 11.7,-2.71 19.35,-9.89 22.95,-21.66 12.51,-40 24.57,-79.99 36.09,-120.078 V 939.82 c -11.52,40.09 -23.58,80.08 -36.09,120.08 -3.6,11.78 -11.25,18.97 -22.95,21.66 l -2.33,0.51"
             style="fill:#61260d;fill-opacity:1;fill-rule:nonzero;stroke:none"
             id="path20128" />
        </g>
      </g>
      <g
         id="g20130">
        <g
           id="g20132"
           clip-path="url(#clipPath20136)">
          <path
             d="m 3592.15,788.832 v 53.09 l 0.02,0.637 c 6.57,91.132 13.05,182.261 19.53,273.401 0.54,7.37 10.98,13.57 31.5,18.25 4.34,0.97 8.8,1.8 13.37,2.46 v -53.1 c -4.57,-0.66 -9.03,-1.48 -13.37,-2.46 -20.52,-4.67 -30.96,-10.88 -31.5,-18.24 -6.48,-91.14 -12.96,-182.268 -19.53,-273.409 l -0.02,-0.629"
             style="fill:#501d0a;fill-opacity:1;fill-rule:nonzero;stroke:none"
             id="path20138" />
          <path
             d="m 3656.57,1083.57 v 53.1 c 9.65,1.41 19.82,2.14 30.46,2.14 v -53.1 c -10.64,0 -20.81,-0.72 -30.46,-2.14"
             style="fill:#59220b;fill-opacity:1;fill-rule:nonzero;stroke:none"
             id="path20140" />
        </g>
      </g>
      <path
         d="m 3687.03,1085.71 c 8.1,0 16.48,-0.42 25.11,-1.28 9.09,-0.8 15.84,-1.79 20.34,-2.87 11.7,-2.69 19.35,-9.88 22.95,-21.66 12.51,-40 24.57,-79.99 36.09,-120.08 l 2.07,-0.172 c 4.23,34.872 8.37,69.652 12.6,104.522 0.9,7.37 11.61,13.04 32.13,16.72 10.3,1.84 21.19,2.76 32.69,2.76 11.48,0 23.56,-0.92 36.25,-2.76 21.87,-3.15 35.19,-8.9 39.96,-16.9 3.33,-5.57 4.68,-10.51 4.05,-14.64 -14.58,-91.952 -29.16,-183.979 -43.74,-275.928 -0.55,-3.34 -8.38,-4.871 -23.43,-4.871 -2.33,0 -4.84,0.031 -7.53,0.109 -19.98,0.629 -41.76,2.512 -65.25,5.57 -23.49,3.141 -36.09,7.461 -37.62,13.399 -10.53,38.101 -21.51,76.211 -32.94,114.23 l -2.43,0.27 c -3.78,-34.867 -7.56,-69.84 -11.34,-104.707 -0.45,-3.871 -10.62,-5.844 -30.6,-6.293 -3.64,-0.07 -7.26,-0.09 -10.88,-0.09 -16.29,0 -32.45,0.652 -48.43,1.981 -19.62,1.609 -32.04,3.589 -37.35,6.109 -5.31,2.422 -7.83,5.93 -7.56,10.332 6.57,91.141 13.05,182.269 19.53,273.409 0.54,7.36 10.98,13.57 31.5,18.24 13.48,3.03 28.14,4.6 43.83,4.6"
         style="fill:#853913;fill-opacity:1;fill-rule:nonzero;stroke:none"
         id="path20142" />
    </g>
    <g
       id="g49645"
       style="display:inline"
       transform="matrix(0.03527778,0,0,-0.03527778,-73.841824,102.29071)"
       inkscape:export-filename="Buttons\T_WinButton.png"
       inkscape:export-xdpi="300"
       inkscape:export-ydpi="300">
      <g
         id="g18648">
        <g
           id="g18650"
           clip-path="url(#clipPath18654)">
          <path
             d="m 4696.65,925.879 v 45.051 c 1.98,0.172 3.96,0.351 6.03,0.531 V 926.43 c -2.07,-0.192 -4.05,-0.371 -6.03,-0.551"
             style="fill:#59220b;fill-opacity:1;fill-rule:nonzero;stroke:none"
             id="path18656" />
        </g>
      </g>
      <g
         id="g18658">
        <g
           id="g18660"
           clip-path="url(#clipPath18664)">
          <path
             d="m 4823.19,936.129 v 45.043 c 1.98,0.09 3.96,0.18 5.94,0.348 v -45.04 c -1.98,-0.171 -3.96,-0.261 -5.94,-0.351"
             style="fill:#59220b;fill-opacity:1;fill-rule:nonzero;stroke:none"
             id="path18666" />
        </g>
      </g>
      <g
         id="g18668">
        <g
           id="g18670"
           clip-path="url(#clipPath18674)">
          <path
             d="m 4702.65,956.609 v 45.041 c 0,30.17 0.09,60.32 0.3,90.52 v -45.04 c -0.21,-30.21 -0.3,-60.349 -0.3,-90.521"
             style="fill:#501d0a;fill-opacity:1;fill-rule:nonzero;stroke:none"
             id="path18676" />
        </g>
      </g>
      <g
         id="g18678">
        <g
           id="g18680"
           clip-path="url(#clipPath18684)">
          <path
             d="m 4829.13,936.48 v 45.04 c 1.53,40.09 3.15,80.27 4.86,120.44 v -45.04 c -1.71,-40.17 -3.33,-80.35 -4.86,-120.44"
             style="fill:#501d0a;fill-opacity:1;fill-rule:nonzero;stroke:none"
             id="path18686" />
        </g>
      </g>
      <g
         id="g18688">
        <g
           id="g18690"
           clip-path="url(#clipPath18694)">
          <path
             d="m 4529.39,1021.66 v 45.04 c 0,4.76 9.65,11.77 29.29,20.79 18.84,8.7 38.46,14.6 58.64,17.55 V 1060 c -20.18,-2.96 -39.8,-8.85 -58.64,-17.55 -19.64,-9.02 -29.29,-16.03 -29.29,-20.79"
             style="fill:#501d0a;fill-opacity:1;fill-rule:nonzero;stroke:none"
             id="path18696" />
          <path
             d="m 4617.32,1060 v 45.04 c 1.51,0.21 3.02,0.42 4.54,0.6 5.26,0.67 10.08,0.99 14.48,0.99 4.74,0 8.98,-0.38 12.71,-1.13 v -45.04 c -3.73,0.75 -7.97,1.13 -12.71,1.13 -4.4,0 -9.22,-0.32 -14.48,-0.98 -1.52,-0.19 -3.03,-0.4 -4.54,-0.61"
             style="fill:#59220b;fill-opacity:1;fill-rule:nonzero;stroke:none"
             id="path18698" />
          <path
             d="m 4649.05,1060.46 v 45.04 c 11.32,-2.27 18.02,-7.94 20.06,-16.84 9.36,-39.19 18.54,-78.46 27.54,-117.73 v -45.051 c -9,39.281 -18.18,78.551 -27.54,117.741 -2.04,8.9 -8.74,14.57 -20.06,16.84"
             style="fill:#61260d;fill-opacity:1;fill-rule:nonzero;stroke:none"
             id="path18700" />
        </g>
      </g>
      <g
         id="g18702">
        <g
           id="g18704"
           clip-path="url(#clipPath18708)">
          <path
             d="m 4702.95,1047.13 v 45.04 c 0,12.79 14.3,21.62 42.94,25.8 v -45.04 c -28.64,-4.18 -42.94,-13.01 -42.94,-25.8"
             style="fill:#501d0a;fill-opacity:1;fill-rule:nonzero;stroke:none"
             id="path18710" />
          <path
             d="m 4745.89,1072.93 v 45.04 c 4.76,0.69 9.92,1.26 15.47,1.7 3.97,0.31 7.6,0.46 10.88,0.46 5,0 9.21,-0.35 12.63,-1.04 v -45.04 c -3.42,0.69 -7.63,1.04 -12.63,1.04 -3.28,0 -6.91,-0.15 -10.88,-0.46 -5.55,-0.44 -10.71,-1.01 -15.47,-1.7"
             style="fill:#59220b;fill-opacity:1;fill-rule:nonzero;stroke:none"
             id="path18712" />
          <path
             d="m 4784.87,1074.05 v 45.04 c 2.84,-0.56 5.14,-1.37 6.91,-2.39 5.31,-3.06 8.46,-7.36 9.45,-12.85 7.47,-40.89 14.85,-81.79 21.96,-122.678 v -45.043 c -7.11,40.891 -14.49,81.791 -21.96,122.681 -0.99,5.49 -4.14,9.79 -9.45,12.85 -1.77,1.03 -4.07,1.82 -6.91,2.39"
             style="fill:#61260d;fill-opacity:1;fill-rule:nonzero;stroke:none"
             id="path18714" />
        </g>
      </g>
      <path
         d="m 4926.91,1082.6 c 16.8,0 28.45,-2.26 34.97,-6.62 7.02,-4.77 10.53,-9.8 10.62,-15.1 -31.5,-78.368 -60.39,-157.29 -86.76,-236.65 -2.7,-7.898 -22.77,-12.488 -60.03,-14.648 -3.67,-0.23 -6.95,-0.352 -9.84,-0.352 -5.9,0 -10.19,0.5 -12.84,1.52 -3.96,1.531 -6.75,4.32 -8.46,8.539 -8.64,21.391 -17.46,42.781 -26.55,64.082 -1.62,-0.18 -3.33,-0.262 -5.04,-0.449 -5.58,-22.473 -11.07,-44.93 -16.38,-67.492 -1.71,-8.098 -20.16,-13.489 -55.17,-17.348 -7.17,-0.793 -13.02,-1.211 -17.52,-1.211 -3.7,0 -6.5,0.277 -8.4,0.84 -4.32,1.359 -7.56,3.961 -9.72,8.008 -39.6,72.711 -81.72,144.519 -126.36,215.431 -0.72,4.77 8.91,11.96 29.25,21.3 20.25,9.35 41.4,15.46 63.18,18.16 5.26,0.66 10.08,0.98 14.48,0.98 19.09,0 30.07,-6.13 32.77,-17.97 9.36,-39.19 18.54,-78.46 27.54,-117.741 1.98,0.18 3.96,0.359 6.03,0.551 -0.09,40.261 0,80.44 0.27,120.7 0,14.92 19.44,24.44 58.41,27.5 3.97,0.31 7.6,0.46 10.88,0.46 9.15,0 15.63,-1.17 19.54,-3.43 5.31,-3.06 8.46,-7.36 9.45,-12.85 7.47,-40.89 14.85,-81.79 21.96,-122.681 1.98,0.09 3.96,0.18 5.94,0.351 1.53,40.09 3.15,80.27 4.86,120.44 0.54,7.38 10.44,13.48 29.88,18.07 19.44,4.67 38.97,7.19 58.32,7.55 1.62,0.04 3.19,0.06 4.72,0.06"
         style="fill:#853913;fill-opacity:1;fill-rule:nonzero;stroke:none"
         id="path18716" />
      <g
         id="g18718">
        <g
           id="g18720"
           clip-path="url(#clipPath18724)">
          <path
             d="m 4926.91,1082.6 v 45.04 c 8.72,0 16.04,-0.61 21.98,-1.8 v -45.04 c -5.94,1.19 -13.26,1.8 -21.98,1.8"
             style="fill:#59220b;fill-opacity:1;fill-rule:nonzero;stroke:none"
             id="path18726" />
          <path
             d="m 4948.89,1080.8 v 45.04 c 5.52,-1.11 9.85,-2.72 12.99,-4.82 6.26,-4.25 9.73,-8.72 10.47,-13.39 v -45.04 c -0.74,4.68 -4.21,9.14 -10.47,13.39 -3.14,2.1 -7.47,3.71 -12.99,4.82"
             style="fill:#61260d;fill-opacity:1;fill-rule:nonzero;stroke:none"
             id="path18728" />
          <path
             d="m 4972.35,1062.59 v 45.04 l 0.15,-1.71 v -45.04 l -0.15,1.71"
             style="fill:#59220b;fill-opacity:1;fill-rule:nonzero;stroke:none"
             id="path18730" />
        </g>
      </g>
      <g
         id="g18732">
        <g
           id="g18734"
           clip-path="url(#clipPath18738)">
          <path
             d="m 4833.99,1056.92 v 45.04 c 0.54,7.38 10.44,13.49 29.88,18.07 8.24,1.98 16.49,3.57 24.73,4.77 v -45.03 c -8.24,-1.21 -16.49,-2.8 -24.73,-4.78 -19.44,-4.59 -29.34,-10.69 -29.88,-18.07"
             style="fill:#501d0a;fill-opacity:1;fill-rule:nonzero;stroke:none"
             id="path18740" />
          <path
             d="m 4888.6,1079.77 v 45.03 c 11.22,1.65 22.44,2.57 33.59,2.78 1.62,0.04 3.19,0.06 4.72,0.06 v -45.04 c -1.53,0 -3.1,-0.02 -4.72,-0.06 -11.15,-0.21 -22.37,-1.13 -33.59,-2.77"
             style="fill:#59220b;fill-opacity:1;fill-rule:nonzero;stroke:none"
             id="path18742" />
        </g>
      </g>
      <g
         id="g18744">
        <g
           id="g18746"
           clip-path="url(#clipPath18750)">
          <path
             d="m 4994.19,823.52 v 45.031 c 0.18,78.558 0.45,157.019 0.63,235.569 v -45.04 c -0.18,-78.549 -0.45,-157.01 -0.63,-235.56"
             style="fill:#501d0a;fill-opacity:1;fill-rule:nonzero;stroke:none"
             id="path18752" />
        </g>
      </g>
      <g
         id="g18754">
        <g
           id="g18756"
           clip-path="url(#clipPath18760)">
          <path
             d="m 5116.86,1070.59 v 45.03 c 1.49,-1.96 2.37,-3.92 2.67,-5.84 v -45.04 c -0.3,1.92 -1.18,3.88 -2.67,5.85"
             style="fill:#61260d;fill-opacity:1;fill-rule:nonzero;stroke:none"
             id="path18762" />
          <path
             d="m 5119.53,1064.74 v 45.04 l 0.13,-1.54 v -45.04 l -0.13,1.54"
             style="fill:#59220b;fill-opacity:1;fill-rule:nonzero;stroke:none"
             id="path18764" />
        </g>
      </g>
      <g
         id="g18766">
        <g
           id="g18768"
           clip-path="url(#clipPath18772)">
          <path
             d="m 5072.7,1082.37 v 45.04 c 2.24,0 4.52,-0.04 6.81,-0.11 6.64,-0.21 12.49,-0.83 17.53,-1.84 v -45.04 c -5.04,1.02 -10.89,1.63 -17.53,1.85 -2.29,0.06 -4.57,0.1 -6.81,0.1"
             style="fill:#59220b;fill-opacity:1;fill-rule:nonzero;stroke:none"
             id="path18774" />
          <path
             d="m 5097.04,1080.42 v 45.04 c 9.49,-1.91 16.11,-5.2 19.82,-9.84 v -45.03 c -3.71,4.63 -10.33,7.93 -19.82,9.83"
             style="fill:#61260d;fill-opacity:1;fill-rule:nonzero;stroke:none"
             id="path18776" />
        </g>
      </g>
      <g
         id="g18778">
        <g
           id="g18780"
           clip-path="url(#clipPath18784)">
          <path
             d="m 4994.82,1059.08 v 45.04 c 0,5.48 8.64,10.97 26.1,16.27 7.22,2.17 14.83,3.84 22.81,5 v -45.04 c -7.98,-1.16 -15.59,-2.83 -22.81,-5 -17.46,-5.3 -26.1,-10.79 -26.1,-16.27"
             style="fill:#501d0a;fill-opacity:1;fill-rule:nonzero;stroke:none"
             id="path18786" />
          <path
             d="m 5043.73,1080.35 v 45.04 c 9.18,1.34 18.84,2.02 28.97,2.02 v -45.04 c -10.13,0 -19.79,-0.68 -28.97,-2.02"
             style="fill:#59220b;fill-opacity:1;fill-rule:nonzero;stroke:none"
             id="path18788" />
        </g>
      </g>
      <path
         d="m 5072.7,1082.37 c 2.24,0 4.52,-0.04 6.81,-0.1 19.17,-0.63 31.68,-4.58 37.35,-11.68 1.98,-2.61 2.88,-5.22 2.79,-7.74 -3.6,-80.612 -7.29,-161.33 -10.89,-242.03 -0.18,-2.789 -8.55,-4.59 -25.29,-5.66 -12.87,-0.769 -25.69,-1.199 -38.58,-1.199 -3.87,0 -7.75,0.027 -11.64,0.109 -16.74,0.282 -27.45,1 -32.13,2.43 -4.59,1.352 -6.93,3.691 -6.93,7.02 0.18,78.55 0.45,157.011 0.63,235.56 0,5.48 8.64,10.97 26.1,16.27 15.53,4.66 32.85,7.02 51.78,7.02"
         style="fill:#853913;fill-opacity:1;fill-rule:nonzero;stroke:none"
         id="path18790" />
      <path
         d="m 5309.91,950.238 v 45.043 l 1.71,-0.269 v -45.043 l -1.71,0.269"
         style="fill:#59220b;fill-opacity:1;fill-rule:nonzero;stroke:none"
         id="path18792" />
      <g
         id="g18794">
        <g
           id="g18796"
           clip-path="url(#clipPath18800)">
          <path
             d="m 5311.62,949.969 v 45.043 c 3.42,29.658 6.84,59.228 10.26,88.798 0.72,6.29 9.81,11.14 27.45,14.29 1.5,0.27 3.02,0.51 4.56,0.74 v -45.04 c -1.54,-0.23 -3.06,-0.47 -4.56,-0.74 -17.64,-3.15 -26.73,-8 -27.45,-14.29 -3.42,-29.57 -6.84,-59.141 -10.26,-88.801"
             style="fill:#501d0a;fill-opacity:1;fill-rule:nonzero;stroke:none"
             id="path18802" />
          <path
             d="m 5353.89,1053.8 v 45.04 c 7.56,1.1 15.51,1.66 23.84,1.66 9.74,0 19.99,-0.76 30.73,-2.32 2.75,-0.39 5.35,-0.83 7.78,-1.31 v -45.05 c -2.43,0.49 -5.03,0.93 -7.78,1.32 -10.74,1.56 -20.99,2.32 -30.73,2.32 -8.33,0 -16.28,-0.56 -23.84,-1.66"
             style="fill:#59220b;fill-opacity:1;fill-rule:nonzero;stroke:none"
             id="path18804" />
          <path
             d="m 5416.24,1051.82 v 45.05 c 14.14,-2.85 22.98,-7.22 26.51,-12.97 1.9,-3.21 3.05,-6.1 3.47,-8.69 v -45.04 c -0.42,2.59 -1.57,5.48 -3.47,8.69 -3.53,5.75 -12.37,10.12 -26.51,12.96"
             style="fill:#61260d;fill-opacity:1;fill-rule:nonzero;stroke:none"
             id="path18806" />
          <path
             d="m 5446.22,1030.17 v 45.04 l 0.17,-2.09 v -45.04 l -0.17,2.09"
             style="fill:#59220b;fill-opacity:1;fill-rule:nonzero;stroke:none"
             id="path18808" />
        </g>
      </g>
      <g
         id="g18810">
        <g
           id="g18812"
           clip-path="url(#clipPath18816)">
          <path
             d="m 5221.24,1073.25 v 45.05 c 6.34,0 12.88,-0.29 19.64,-0.88 6.83,-0.55 12.07,-1.23 15.87,-1.99 v -45.04 c -3.8,0.76 -9.04,1.45 -15.87,1.99 -6.76,0.59 -13.3,0.87 -19.64,0.87"
             style="fill:#59220b;fill-opacity:1;fill-rule:nonzero;stroke:none"
             id="path18818" />
          <path
             d="m 5256.75,1070.39 v 45.04 l 1.59,-0.34 c 10.08,-2.16 16.65,-8.27 19.89,-18.25 11.07,-33.79 21.6,-67.68 31.68,-101.559 v -45.043 c -10.08,33.883 -20.61,67.772 -31.68,101.562 -3.24,9.98 -9.81,16.09 -19.89,18.25 l -1.59,0.34"
             style="fill:#61260d;fill-opacity:1;fill-rule:nonzero;stroke:none"
             id="path18820" />
        </g>
      </g>
      <g
         id="g18822">
        <g
           id="g18824"
           clip-path="url(#clipPath18828)">
          <path
             d="m 5141.6,820.57 v 45.039 c 4.51,77.813 8.92,155.191 13.33,232.571 0.36,6.3 9.27,11.61 26.82,15.74 4.31,1.03 8.77,1.89 13.35,2.56 v -45.04 c -4.58,-0.67 -9.04,-1.53 -13.35,-2.56 -17.55,-4.13 -26.46,-9.44 -26.82,-15.74 -4.41,-77.378 -8.82,-154.761 -13.32,-232.14 l -0.01,-0.43"
             style="fill:#501d0a;fill-opacity:1;fill-rule:nonzero;stroke:none"
             id="path18830" />
          <path
             d="m 5195.1,1071.44 v 45.04 c 8.28,1.22 16.99,1.82 26.14,1.82 v -45.05 c -9.15,0 -17.86,-0.6 -26.14,-1.81"
             style="fill:#59220b;fill-opacity:1;fill-rule:nonzero;stroke:none"
             id="path18832" />
        </g>
      </g>
      <path
         d="m 5221.24,1073.25 c 6.34,0 12.88,-0.28 19.64,-0.87 7.83,-0.62 13.59,-1.43 17.46,-2.33 10.08,-2.16 16.65,-8.27 19.89,-18.25 11.07,-33.79 21.6,-67.679 31.68,-101.562 l 1.71,-0.269 c 3.42,29.66 6.84,59.231 10.26,88.801 0.72,6.29 9.81,11.14 27.45,14.29 8.9,1.6 18.38,2.4 28.4,2.4 9.74,0 19.99,-0.76 30.73,-2.32 18.72,-2.69 30.15,-7.54 34.29,-14.28 2.88,-4.86 4.05,-8.99 3.51,-12.49 -12.42,-78.018 -24.75,-156.03 -37.17,-234.132 -0.46,-2.758 -6.85,-4.078 -19.18,-4.078 -2.16,0 -4.49,0.039 -7.01,0.121 -17.01,0.449 -35.37,1.981 -55.35,4.578 -19.89,2.52 -30.51,6.11 -31.86,11.063 -9.09,32.359 -18.63,64.617 -28.62,96.797 l -2.16,0.179 c -2.97,-29.566 -5.95,-59.226 -8.91,-88.886 -0.36,-3.242 -9,-5.043 -25.92,-5.492 -5.16,-0.149 -10.29,-0.239 -15.41,-0.239 -11.69,0 -23.29,0.418 -34.81,1.239 -16.65,1.16 -27.18,2.691 -31.77,4.761 -4.5,2.071 -6.66,4.949 -6.48,8.719 4.5,77.379 8.91,154.762 13.32,232.14 0.36,6.3 9.27,11.61 26.82,15.74 12.13,2.92 25.29,4.37 39.49,4.37"
         style="fill:#853913;fill-opacity:1;fill-rule:nonzero;stroke:none"
         id="path18834" />
    </g>
    <g
       id="g50187"
       style="display:inline"
       transform="matrix(0.03527778,0,0,-0.03527778,-58.525981,114.28782)"
       inkscape:export-filename="Buttons\T_AutoButton.png"
       inkscape:export-xdpi="300"
       inkscape:export-ydpi="300">
      <path
         d="m 2668.77,394.66 v 18.84 h 11.88 v -18.84 h -11.88"
         style="fill:#4e1d0a;fill-opacity:1;fill-rule:nonzero;stroke:none"
         id="path21136" />
      <g
         id="g21138">
        <g
           id="g21140"
           clip-path="url(#clipPath21144)">
          <path
             d="m 2596.05,343.66 v 18.84 c 0,3.332 6.48,24.191 19.44,62.781 13.05,38.5 20.52,60.719 22.41,66.641 V 473.09 c -1.89,-5.93 -9.36,-28.149 -22.41,-66.641 -12.96,-38.597 -19.44,-59.461 -19.44,-62.789"
             style="fill:#4a1b0a;fill-opacity:1;fill-rule:nonzero;stroke:none"
             id="path21146" />
        </g>
      </g>
      <g
         id="g21148">
        <g
           id="g21150"
           clip-path="url(#clipPath21154)">
          <path
             d="m 2711.97,473.09 v 18.832 c 26.67,-82.742 40.51,-126.184 41.44,-130.301 v -18.84 c -0.93,4.117 -14.77,47.559 -41.44,130.309"
             style="fill:#5d250d;fill-opacity:1;fill-rule:nonzero;stroke:none"
             id="path21156" />
          <path
             d="m 2753.41,342.781 v 18.84 l 0.05,-19.133 z"
             style="fill:#54200b;fill-opacity:1;fill-rule:nonzero;stroke:none"
             id="path21158" />
        </g>
      </g>
      <g
         id="g21160">
        <g
           id="g21162"
           clip-path="url(#clipPath21166)">
          <path
             d="m 2637.9,473.09 v 18.832 c 0.69,1.648 6.11,3.129 16.35,4.269 v -18.839 c -10.24,-1.141 -15.66,-2.614 -16.35,-4.262"
             style="fill:#4a1b0a;fill-opacity:1;fill-rule:nonzero;stroke:none"
             id="path21168" />
          <path
             d="m 2654.25,477.352 v 18.839 l 1.29,0.149 c 11.07,1.172 22.86,1.711 35.55,1.711 5.75,0 10.34,-0.43 13.75,-1.289 v -18.84 c -3.41,0.859 -8,1.289 -13.75,1.289 -12.69,0 -24.48,-0.539 -35.55,-1.711 l -1.29,-0.148"
             style="fill:#54200b;fill-opacity:1;fill-rule:nonzero;stroke:none"
             id="path21170" />
          <path
             d="m 2704.84,477.922 v 18.84 c 4.06,-1.024 6.44,-2.633 7.13,-4.84 V 473.09 c -0.69,2.199 -3.07,3.808 -7.13,4.832"
             style="fill:#5d250d;fill-opacity:1;fill-rule:nonzero;stroke:none"
             id="path21172" />
        </g>
      </g>
      <path
         d="m 2668.77,394.66 h 11.88 l -3.33,36.871 h -4.77 z m 43.2,78.43 c 27.63,-85.719 41.49,-129.25 41.49,-130.602 0,-1.437 -0.9,-2.789 -2.61,-4.136 -4.14,-2.973 -12.24,-4.493 -24.39,-4.493 -25.83,0 -39.06,2.883 -39.69,8.629 l -1.53,13.313 h -21.06 l -1.08,-11.512 c -0.27,-3.961 -2.52,-6.648 -6.66,-8.187 -4.23,-1.52 -11.7,-2.243 -22.5,-2.243 -10.8,0 -19.8,0.903 -27.09,2.782 -7.2,1.808 -10.8,4.14 -10.8,7.019 0,3.328 6.48,24.192 19.44,62.789 13.05,38.492 20.52,60.711 22.41,66.641 0.72,1.711 6.57,3.242 17.64,4.41 11.07,1.172 22.86,1.711 35.55,1.711 12.6,0 19.62,-2.07 20.88,-6.121"
         style="fill:#843913;fill-opacity:1;fill-rule:nonzero;stroke:none"
         id="path21174" />
      <g
         id="g21176">
        <g
           id="g21178"
           clip-path="url(#clipPath21182)">
          <path
             d="m 2818.98,407.34 v 18.84 c 0,-13.129 0.46,-22.532 1.38,-28.071 V 379.27 c -0.92,5.539 -1.38,14.941 -1.38,28.07"
             style="fill:#54200b;fill-opacity:1;fill-rule:nonzero;stroke:none"
             id="path21184" />
          <path
             d="m 2820.36,379.27 v 18.839 c 0.15,-0.949 0.32,-1.789 0.51,-2.507 1.03,-4.122 2.96,-6.493 5.88,-7.223 v -18.84 c -2.92,0.731 -4.85,3.109 -5.88,7.223 -0.19,0.718 -0.36,1.558 -0.51,2.508"
             style="fill:#5d250d;fill-opacity:1;fill-rule:nonzero;stroke:none"
             id="path21186" />
          <path
             d="m 2826.75,369.539 v 18.84 l 2.13,-0.25 1.03,0.051 v -18.828 l -1.03,-0.051 -2.13,0.238"
             style="fill:#54200b;fill-opacity:1;fill-rule:nonzero;stroke:none"
             id="path21188" />
          <path
             d="m 2829.91,369.352 v 18.828 c 3.46,0.39 5.72,2.808 6.71,7.242 1.08,4.769 1.71,15.109 1.71,30.937 V 407.52 c 0,-15.829 -0.63,-26.168 -1.71,-30.942 -0.99,-4.43 -3.25,-6.84 -6.71,-7.226"
             style="fill:#4a1b0a;fill-opacity:1;fill-rule:nonzero;stroke:none"
             id="path21190" />
        </g>
      </g>
      <g
         id="g21192">
        <g
           id="g21194"
           clip-path="url(#clipPath21198)">
          <path
             d="m 2896.83,474.711 v 18.828 c 1.45,-1.949 2.26,-3.738 2.52,-5.289 v -18.84 c -0.26,1.559 -1.07,3.34 -2.52,5.301"
             style="fill:#5d250d;fill-opacity:1;fill-rule:nonzero;stroke:none"
             id="path21200" />
          <path
             d="m 2899.35,469.41 v 18.84 l 0.09,-1.09 v -18.84 l -0.09,1.09"
             style="fill:#54200b;fill-opacity:1;fill-rule:nonzero;stroke:none"
             id="path21202" />
        </g>
      </g>
      <g
         id="g21204">
        <g
           id="g21206"
           clip-path="url(#clipPath21210)">
          <path
             d="m 2816.19,474.711 v 18.828 c 1.56,-2 2.44,-3.809 2.71,-5.398 v -18.832 c -0.27,1.582 -1.15,3.402 -2.71,5.402"
             style="fill:#5d250d;fill-opacity:1;fill-rule:nonzero;stroke:none"
             id="path21212" />
          <path
             d="m 2818.9,469.309 v 18.832 l 0.08,-0.981 v -18.84 l -0.08,0.989"
             style="fill:#54200b;fill-opacity:1;fill-rule:nonzero;stroke:none"
             id="path21214" />
        </g>
      </g>
      <g
         id="g21216">
        <g
           id="g21218"
           clip-path="url(#clipPath21222)">
          <path
             d="m 2757.78,466.07 v 18.84 c 0,3.422 4.14,6.481 12.42,9.27 4.88,1.59 10.24,2.711 16.05,3.371 v -18.84 c -5.81,-0.652 -11.17,-1.781 -16.05,-3.371 -8.28,-2.789 -12.42,-5.852 -12.42,-9.27"
             style="fill:#4a1b0a;fill-opacity:1;fill-rule:nonzero;stroke:none"
             id="path21224" />
          <path
             d="m 2786.25,478.711 v 18.84 c 4.03,0.449 8.29,0.668 12.75,0.668 4.18,0 7.66,-0.34 10.44,-1.028 v -18.839 c -2.78,0.687 -6.26,1.027 -10.44,1.027 -4.46,0 -8.72,-0.219 -12.75,-0.668"
             style="fill:#54200b;fill-opacity:1;fill-rule:nonzero;stroke:none"
             id="path21226" />
          <path
             d="m 2809.44,478.352 v 18.839 c 3.09,-0.781 5.33,-1.98 6.75,-3.652 v -18.828 c -1.42,1.66 -3.66,2.859 -6.75,3.641"
             style="fill:#5d250d;fill-opacity:1;fill-rule:nonzero;stroke:none"
             id="path21228" />
        </g>
      </g>
      <g
         id="g21230">
        <g
           id="g21232"
           clip-path="url(#clipPath21236)">
          <path
             d="m 2879.28,479.379 v 18.84 c 4.46,0 8.1,-0.348 10.96,-1.059 v -18.84 c -2.86,0.711 -6.5,1.059 -10.96,1.059"
             style="fill:#54200b;fill-opacity:1;fill-rule:nonzero;stroke:none"
             id="path21238" />
          <path
             d="m 2890.24,478.32 v 18.84 c 3.1,-0.781 5.28,-1.969 6.59,-3.621 v -18.828 c -1.31,1.641 -3.49,2.828 -6.59,3.609"
             style="fill:#5d250d;fill-opacity:1;fill-rule:nonzero;stroke:none"
             id="path21240" />
        </g>
      </g>
      <g
         id="g21242">
        <g
           id="g21244"
           clip-path="url(#clipPath21248)">
          <path
             d="m 2838.33,466.07 v 18.84 c 0,3.422 4.05,6.481 12.33,9.27 4.91,1.601 10.26,2.718 16.05,3.371 v -18.84 c -5.79,-0.641 -11.14,-1.77 -16.05,-3.371 -8.28,-2.789 -12.33,-5.852 -12.33,-9.27"
             style="fill:#4a1b0a;fill-opacity:1;fill-rule:nonzero;stroke:none"
             id="path21250" />
          <path
             d="m 2866.71,478.711 v 18.84 c 3.98,0.449 8.17,0.668 12.57,0.668 v -18.84 c -4.4,0 -8.59,-0.219 -12.57,-0.668"
             style="fill:#54200b;fill-opacity:1;fill-rule:nonzero;stroke:none"
             id="path21252" />
        </g>
      </g>
      <path
         d="m 2879.28,479.379 c 9.27,0 15.03,-1.52 17.55,-4.668 1.8,-2.422 2.61,-4.582 2.61,-6.391 v -77.351 c 0,-19.699 -6.03,-34.36 -18.09,-44.16 -12.06,-9.719 -29.52,-14.571 -52.38,-14.571 -22.86,0 -40.41,4.852 -52.74,14.571 -12.24,9.8 -18.45,24.461 -18.45,44.16 v 75.101 c 0,3.418 4.14,6.481 12.42,9.27 8.28,2.699 17.91,4.039 28.8,4.039 8.82,0 14.49,-1.52 17.19,-4.668 1.89,-2.422 2.79,-4.582 2.79,-6.391 v -60.98 c 0,-15.379 0.63,-25.629 1.89,-30.578 1.26,-5.043 3.87,-7.461 8.01,-7.461 4.05,0 6.66,2.418 7.74,7.277 1.08,4.774 1.71,15.113 1.71,30.942 v 58.55 c 0,3.418 4.05,6.481 12.33,9.27 8.28,2.699 17.82,4.039 28.62,4.039"
         style="fill:#843913;fill-opacity:1;fill-rule:nonzero;stroke:none"
         id="path21254" />
      <g
         id="g21256">
        <g
           id="g21258"
           clip-path="url(#clipPath21262)">
          <path
             d="m 3040.92,479.211 v 18.84 l 0.82,-0.102 v -18.84 l -0.82,0.102"
             style="fill:#54200b;fill-opacity:1;fill-rule:nonzero;stroke:none"
             id="path21264" />
          <path
             d="m 3041.74,479.109 v 18.84 c 1.73,-0.437 2.98,-2.308 3.68,-5.66 l 0.28,-1.5 v -18.84 l -0.28,1.5 c -0.7,3.36 -1.95,5.223 -3.68,5.66"
             style="fill:#5d250d;fill-opacity:1;fill-rule:nonzero;stroke:none"
             id="path21266" />
          <path
             d="m 3045.7,471.949 v 18.84 c 0.62,-3.687 0.89,-8.75 0.89,-15.051 v -18.84 c 0,6.301 -0.27,11.364 -0.89,15.051"
             style="fill:#54200b;fill-opacity:1;fill-rule:nonzero;stroke:none"
             id="path21268" />
        </g>
      </g>
      <g
         id="g21270">
        <g
           id="g21272"
           clip-path="url(#clipPath21276)">
          <path
             d="m 2912.58,449.621 v 18.84 c 0,7.551 0.9,14.379 2.7,20.5 1.62,5.711 3.8,8.75 6.55,9.059 v -18.84 c -2.75,-0.309 -4.93,-3.348 -6.55,-9.051 -1.8,-6.129 -2.7,-12.957 -2.7,-20.508"
             style="fill:#4a1b0a;fill-opacity:1;fill-rule:nonzero;stroke:none"
             id="path21278" />
          <path
             d="m 2921.83,479.18 v 18.84 l 0.47,-18.809 z"
             style="fill:#54200b;fill-opacity:1;fill-rule:nonzero;stroke:none"
             id="path21280" />
        </g>
      </g>
      <path
         d="m 2922.3,479.211 v 18.84 h 118.62 v -18.84 H 2922.3"
         style="fill:#4e1d0a;fill-opacity:1;fill-rule:nonzero;stroke:none"
         id="path21282" />
      <path
         d="m 3040.92,479.211 c 2.16,0 3.69,-1.902 4.5,-5.762 0.81,-3.769 1.17,-9.359 1.17,-16.551 0,-7.277 -0.81,-14.027 -2.43,-20.5 -1.62,-6.386 -3.78,-9.628 -6.57,-9.628 h -27.36 v -88.059 c 0,-1.43 -4.5,-2.609 -13.5,-3.5 -9,-0.902 -18,-1.352 -27,-1.352 -9,0 -14.67,0.36 -17.1,1.071 -2.43,0.808 -3.6,2.07 -3.6,3.781 v 88.059 h -30.51 c -1.62,0 -2.97,1.89 -4.14,5.761 -1.17,3.77 -1.8,9.528 -1.8,17.09 0,7.551 0.9,14.379 2.7,20.508 1.71,6.019 4.05,9.082 7.02,9.082 h 118.62"
         style="fill:#843913;fill-opacity:1;fill-rule:nonzero;stroke:none"
         id="path21284" />
      <g
         id="g21286">
        <g
           id="g21288"
           clip-path="url(#clipPath21292)">
          <path
             d="m 3126.6,367.141 v 18.839 c 1.2,-1.32 2.68,-2.199 4.44,-2.64 V 364.5 c -1.76,0.441 -3.24,1.32 -4.44,2.641"
             style="fill:#5d250d;fill-opacity:1;fill-rule:nonzero;stroke:none"
             id="path21294" />
          <path
             d="m 3131.04,364.5 v 18.84 c 0.87,-0.219 1.83,-0.328 2.85,-0.328 l 1.44,0.078 v -18.84 l -1.44,-0.078 c -1.02,0 -1.98,0.109 -2.85,0.328"
             style="fill:#54200b;fill-opacity:1;fill-rule:nonzero;stroke:none"
             id="path21296" />
          <path
             d="m 3135.33,364.25 v 18.84 c 2.38,0.262 4.33,1.23 5.76,2.89 v -18.839 c -1.43,-1.661 -3.38,-2.629 -5.76,-2.891"
             style="fill:#4a1b0a;fill-opacity:1;fill-rule:nonzero;stroke:none"
             id="path21298" />
        </g>
      </g>
      <g
         id="g21300">
        <g
           id="g21302"
           clip-path="url(#clipPath21306)">
          <path
             d="m 3141.09,367.141 v 18.839 c 1.8,1.969 3.24,6.2 4.41,12.668 v -18.839 c -1.17,-6.469 -2.61,-10.7 -4.41,-12.668"
             style="fill:#4a1b0a;fill-opacity:1;fill-rule:nonzero;stroke:none"
             id="path21308" />
        </g>
      </g>
      <g
         id="g21310">
        <g
           id="g21312"
           clip-path="url(#clipPath21316)">
          <path
             d="m 3145.5,379.809 v 18.839 c 1.17,6.481 1.71,15.571 1.71,27.172 v -18.84 c 0,-11.601 -0.54,-20.691 -1.71,-27.171"
             style="fill:#4a1b0a;fill-opacity:1;fill-rule:nonzero;stroke:none"
             id="path21318" />
        </g>
      </g>
      <g
         id="g21320">
        <g
           id="g21322"
           clip-path="url(#clipPath21326)">
          <path
             d="m 3120.48,406.98 v 18.84 c 0,-10.648 0.46,-19.191 1.5,-25.531 v -18.828 c -1.04,6.328 -1.5,14.871 -1.5,25.519"
             style="fill:#54200b;fill-opacity:1;fill-rule:nonzero;stroke:none"
             id="path21328" />
          <path
             d="m 3121.98,381.461 v 18.828 l 0.3,-1.641 c 1.17,-6.468 2.61,-10.699 4.32,-12.668 v -18.839 c -1.71,1.968 -3.15,6.199 -4.32,12.668 l -0.3,1.652"
             style="fill:#5d250d;fill-opacity:1;fill-rule:nonzero;stroke:none"
             id="path21330" />
        </g>
      </g>
      <g
         id="g21332">
        <g
           id="g21334"
           clip-path="url(#clipPath21338)">
          <path
             d="m 3188.25,467.969 v 18.84 c 11.31,-7.731 18.5,-20.547 21.47,-38.5 v -18.84 c -2.97,17.953 -10.16,30.769 -21.47,38.5"
             style="fill:#5d250d;fill-opacity:1;fill-rule:nonzero;stroke:none"
             id="path21340" />
          <path
             d="m 3209.72,429.469 v 18.84 c 1.04,-6.321 1.57,-13.278 1.57,-20.868 v -18.839 c 0,7.589 -0.53,14.546 -1.57,20.867"
             style="fill:#54200b;fill-opacity:1;fill-rule:nonzero;stroke:none"
             id="path21342" />
        </g>
      </g>
      <g
         id="g21344">
        <g
           id="g21346"
           clip-path="url(#clipPath21350)">
          <path
             d="m 3056.49,408.602 v 18.839 c 0,12.77 1.98,24.02 6.03,33.547 3.96,9.532 9.54,17.094 16.74,22.75 11.07,8.582 24.71,13.813 40.97,15.633 v -18.832 c -16.26,-1.828 -29.9,-7.051 -40.97,-15.641 -7.2,-5.656 -12.78,-13.218 -16.74,-22.75 -4.05,-9.527 -6.03,-20.769 -6.03,-33.546"
             style="fill:#4a1b0a;fill-opacity:1;fill-rule:nonzero;stroke:none"
             id="path21352" />
          <path
             d="m 3120.23,480.539 v 18.832 c 4.36,0.488 8.92,0.75 13.66,0.75 11.52,0 21.6,-1 30.15,-2.883 l 1.85,-0.437 v -18.84 l -1.85,0.437 c -8.55,1.883 -18.63,2.883 -30.15,2.883 -4.74,0 -9.3,-0.25 -13.66,-0.742"
             style="fill:#54200b;fill-opacity:1;fill-rule:nonzero;stroke:none"
             id="path21354" />
          <path
             d="m 3165.89,477.961 v 18.84 c 7.86,-1.969 15.26,-5.332 22.36,-9.992 v -18.84 c -7.1,4.672 -14.5,8.031 -22.36,9.992"
             style="fill:#5d250d;fill-opacity:1;fill-rule:nonzero;stroke:none"
             id="path21356" />
        </g>
      </g>
      <path
         d="m 3145.5,379.809 c 1.17,6.48 1.71,15.57 1.71,27.171 0,11.52 -0.54,20.508 -1.71,26.809 -1.17,6.199 -2.61,10.34 -4.41,12.231 -1.71,1.89 -4.14,2.878 -7.2,2.878 -3.06,0 -5.49,-0.988 -7.29,-2.878 -1.71,-1.891 -3.15,-6.032 -4.32,-12.231 -1.26,-6.301 -1.8,-15.289 -1.8,-26.809 0,-11.601 0.54,-20.691 1.8,-27.171 1.17,-6.469 2.61,-10.7 4.32,-12.668 1.8,-1.981 4.23,-2.969 7.29,-2.969 3.06,0 5.49,0.988 7.2,2.969 1.8,1.968 3.24,6.199 4.41,12.668 z m 42.75,88.16 c 15.29,-10.438 23.04,-30.231 23.04,-59.367 0,-26.27 -6.93,-45.512 -20.88,-57.93 -13.86,-12.5 -32.76,-18.711 -56.52,-18.711 -12.15,0 -22.59,1.09 -31.23,3.25 -8.73,2.07 -16.74,5.84 -24.03,11.32 -14.76,10.801 -22.14,31.489 -22.14,62.071 0,12.777 1.98,24.019 6.03,33.546 3.96,9.532 9.54,17.094 16.74,22.75 14.04,10.891 32.22,16.383 54.63,16.383 11.52,0 21.6,-1 30.15,-2.883 8.55,-1.898 16.56,-5.398 24.21,-10.429"
         style="fill:#843913;fill-opacity:1;fill-rule:nonzero;stroke:none"
         id="path21358" />
    </g>
    <g
       id="g51405"
       style="display:inline"
       transform="matrix(0.03527778,0,0,-0.03527778,-44.430556,114.83023)"
       inkscape:export-filename="Buttons\T_InfoButton.png"
       inkscape:export-xdpi="300"
       inkscape:export-ydpi="300">
      <g
         id="g22438">
        <g
           id="g22440"
           clip-path="url(#clipPath22444)">
          <path
             d="m 4049.82,467.969 v 18.84 c 11.31,-7.731 18.49,-20.547 21.47,-38.5 v -18.84 c -2.98,17.953 -10.16,30.769 -21.47,38.5"
             style="fill:#5d250d;fill-opacity:1;fill-rule:nonzero;stroke:none"
             id="path22446" />
          <path
             d="m 4071.29,429.469 v 18.84 c 1.04,-6.321 1.57,-13.278 1.57,-20.868 v -18.839 c 0,7.589 -0.53,14.546 -1.57,20.867"
             style="fill:#54200b;fill-opacity:1;fill-rule:nonzero;stroke:none"
             id="path22448" />
        </g>
      </g>
      <g
         id="g50810">
        <g
           id="g22244">
          <g
             id="g22246"
             clip-path="url(#clipPath22250-4)">
            <path
               d="m 3594.42,479.379 v 18.84 c 4.17,0 7.7,-0.348 10.58,-1.071 v -18.839 c -2.88,0.722 -6.41,1.07 -10.58,1.07"
               style="fill:#54200b;fill-opacity:1;fill-rule:nonzero;stroke:none"
               id="path22252" />
            <path
               d="m 3605,478.309 v 18.839 c 3.59,-0.898 6.18,-2.359 7.78,-4.418 0.81,-1.011 1.27,-2.031 1.45,-3.082 v -18.839 c -0.18,1.062 -0.64,2.07 -1.45,3.089 -1.6,2.051 -4.19,3.512 -7.78,4.411"
               style="fill:#5d250d;fill-opacity:1;fill-rule:nonzero;stroke:none"
               id="path22254" />
            <path
               d="m 3614.23,470.809 v 18.839 l 0.08,-1.046 V 469.77 l -0.08,1.039"
               style="fill:#54200b;fill-opacity:1;fill-rule:nonzero;stroke:none"
               id="path22256" />
          </g>
        </g>
        <g
           id="g22258">
          <g
             id="g22260"
             clip-path="url(#clipPath22264-9)">
            <path
               d="m 3553.2,466.07 v 18.84 c 0,3.059 4.23,6.031 12.69,8.91 5.27,1.84 10.96,3.102 17.04,3.789 V 478.77 c -6.08,-0.68 -11.77,-1.938 -17.04,-3.79 -8.46,-2.878 -12.69,-5.851 -12.69,-8.91"
               style="fill:#4a1b0a;fill-opacity:1;fill-rule:nonzero;stroke:none"
               id="path22266" />
            <path
               d="m 3582.93,478.77 v 18.839 c 3.69,0.411 7.52,0.61 11.49,0.61 v -18.84 c -3.97,0 -7.8,-0.199 -11.49,-0.609"
               style="fill:#54200b;fill-opacity:1;fill-rule:nonzero;stroke:none"
               id="path22268" />
          </g>
        </g>
        <path
           d="m 3594.42,479.379 c 9.36,0 15.48,-1.789 18.36,-5.481 1.08,-1.347 1.53,-2.699 1.53,-4.128 V 338.711 c 0,-1.43 -4.41,-2.609 -13.32,-3.5 -8.91,-0.902 -17.91,-1.352 -26.91,-1.352 -9,0 -14.67,0.36 -17.19,1.071 -2.52,0.808 -3.69,2.07 -3.69,3.781 V 466.07 c 0,3.059 4.23,6.032 12.69,8.91 8.46,2.969 18,4.399 28.53,4.399"
           style="fill:#843913;fill-opacity:1;fill-rule:nonzero;stroke:none"
           id="path22270" />
        <path
           d="m 3713.22,417.148 v 18.84 h 0.9 v -18.84 h -0.9"
           style="fill:#4e1d0a;fill-opacity:1;fill-rule:nonzero;stroke:none"
           id="path22272" />
        <path
           d="m 3692.16,470.031 v 18.84 l 21.06,-52.883 v -18.84 l -21.06,52.883"
           style="fill:#59230c;fill-opacity:1;fill-rule:nonzero;stroke:none"
           id="path22274" />
        <g
           id="g22276">
          <g
             id="g22278"
             clip-path="url(#clipPath22282-2)">
            <path
               d="m 3772.62,474.262 v 18.84 c 1.44,-1.801 2.24,-3.551 2.52,-5.141 v -18.84 c -0.28,1.59 -1.08,3.34 -2.52,5.141"
               style="fill:#5d250d;fill-opacity:1;fill-rule:nonzero;stroke:none"
               id="path22284" />
            <path
               d="m 3775.14,469.121 v 18.84 l 0.09,-1.16 v -18.84 l -0.09,1.16"
               style="fill:#54200b;fill-opacity:1;fill-rule:nonzero;stroke:none"
               id="path22286" />
          </g>
        </g>
        <g
           id="g22288">
          <g
             id="g22290"
             clip-path="url(#clipPath22294-3)">
            <path
               d="m 3681.63,478.762 v 18.84 l 1.63,-0.313 v -18.828 l -1.63,0.301"
               style="fill:#54200b;fill-opacity:1;fill-rule:nonzero;stroke:none"
               id="path22296" />
            <path
               d="m 3683.26,478.461 v 18.828 c 4.1,-1.027 7.06,-3.867 8.9,-8.418 v -18.84 c -1.84,4.551 -4.8,7.391 -8.9,8.43"
               style="fill:#5d250d;fill-opacity:1;fill-rule:nonzero;stroke:none"
               id="path22298" />
          </g>
        </g>
        <g
           id="g22300">
          <g
             id="g22302"
             clip-path="url(#clipPath22306-1)">
            <path
               d="m 3631.86,465.449 v 18.84 c 0,3.422 4.23,6.563 12.6,9.441 5.23,1.782 10.86,3 16.91,3.68 v -18.84 c -6.05,-0.679 -11.68,-1.898 -16.91,-3.679 -8.37,-2.879 -12.6,-6.02 -12.6,-9.442"
               style="fill:#4a1b0a;fill-opacity:1;fill-rule:nonzero;stroke:none"
               id="path22308" />
            <path
               d="m 3661.37,478.57 v 18.84 c 3.75,0.418 7.64,0.641 11.71,0.641 3.78,0 6.66,-0.09 8.55,-0.449 v -18.84 c -1.89,0.359 -4.77,0.449 -8.55,0.449 -4.07,0 -7.96,-0.223 -11.71,-0.641"
               style="fill:#54200b;fill-opacity:1;fill-rule:nonzero;stroke:none"
               id="path22310" />
          </g>
        </g>
        <g
           id="g22312">
          <g
             id="g22314"
             clip-path="url(#clipPath22318-0)">
            <path
               d="m 3755.07,479.211 v 18.84 c 4.31,0 7.88,-0.352 10.71,-1.071 v -18.839 c -2.83,0.718 -6.4,1.07 -10.71,1.07"
               style="fill:#54200b;fill-opacity:1;fill-rule:nonzero;stroke:none"
               id="path22320" />
            <path
               d="m 3765.78,478.141 v 18.839 c 3.26,-0.808 5.54,-2.101 6.84,-3.878 v -18.84 c -1.3,1.777 -3.58,3.07 -6.84,3.879"
               style="fill:#5d250d;fill-opacity:1;fill-rule:nonzero;stroke:none"
               id="path22322" />
          </g>
        </g>
        <g
           id="g22324">
          <g
             id="g22326"
             clip-path="url(#clipPath22330-0)">
            <path
               d="m 3714.12,465.449 v 18.84 c 0,3.422 4.14,6.563 12.51,9.441 5.12,1.782 10.72,3.012 16.77,3.68 v -18.84 c -6.05,-0.672 -11.65,-1.898 -16.77,-3.679 -8.37,-2.879 -12.51,-6.02 -12.51,-9.442"
               style="fill:#4a1b0a;fill-opacity:1;fill-rule:nonzero;stroke:none"
               id="path22332" />
            <path
               d="m 3743.4,478.57 v 18.84 c 3.72,0.418 7.62,0.641 11.67,0.641 v -18.84 c -4.05,0 -7.95,-0.223 -11.67,-0.641"
               style="fill:#54200b;fill-opacity:1;fill-rule:nonzero;stroke:none"
               id="path22334" />
          </g>
        </g>
        <path
           d="m 3755.07,479.211 c 9.27,0 15.12,-1.621 17.55,-4.949 1.8,-2.25 2.61,-4.41 2.61,-6.301 V 339.789 c 0,-1.797 -4.41,-3.238 -13.41,-4.309 -9,-1.089 -18.9,-1.621 -29.61,-1.621 -10.8,0 -16.65,1.262 -17.64,3.86 l -20.43,50.383 h -1.08 v -48.313 c 0,-1.797 -4.5,-3.238 -13.5,-4.309 -9,-1.089 -17.91,-1.621 -26.82,-1.621 -8.91,0 -14.67,0.45 -17.1,1.43 -2.52,0.992 -3.78,2.43 -3.78,4.5 v 125.66 c 0,3.422 4.23,6.563 12.6,9.442 8.46,2.871 18,4.32 28.62,4.32 3.78,0 6.66,-0.09 8.55,-0.449 4.95,-0.641 8.46,-3.602 10.53,-8.731 l 21.06,-52.883 h 0.9 v 48.301 c 0,3.422 4.14,6.563 12.51,9.442 8.28,2.871 17.82,4.32 28.44,4.32"
           style="fill:#843913;fill-opacity:1;fill-rule:nonzero;stroke:none"
           id="path22336" />
        <g
           id="g22338">
          <g
             id="g22340"
             clip-path="url(#clipPath22344-5)">
            <path
               d="m 3853.98,420.469 v 18.84 c 19.44,0.812 32.49,1.171 39.06,1.171 l 1.33,-0.16 v -18.84 l -1.33,0.161 c -6.57,0 -19.62,-0.36 -39.06,-1.172"
               style="fill:#54200b;fill-opacity:1;fill-rule:nonzero;stroke:none"
               id="path22346" />
            <path
               d="m 3894.37,421.48 v 18.84 c 1.46,-0.359 2.53,-1.39 3.17,-3.07 0.23,-0.641 0.43,-1.441 0.59,-2.418 V 416 c -0.16,0.969 -0.36,1.77 -0.59,2.41 -0.64,1.68 -1.71,2.711 -3.17,3.07"
               style="fill:#5d250d;fill-opacity:1;fill-rule:nonzero;stroke:none"
               id="path22348" />
            <path
               d="m 3898.13,416 v 18.832 c 0.4,-2.383 0.58,-5.781 0.58,-10.184 v -18.839 c 0,4.402 -0.18,7.8 -0.58,10.191"
               style="fill:#54200b;fill-opacity:1;fill-rule:nonzero;stroke:none"
               id="path22350" />
          </g>
        </g>
        <g
           id="g22352">
          <g
             id="g22354"
             clip-path="url(#clipPath22358-2)">
            <path
               d="m 3792.78,469.582 v 18.84 c 0,3.5 1.89,6.117 5.76,7.558 v -18.839 c -3.87,-1.442 -5.76,-4.051 -5.76,-7.559"
               style="fill:#4a1b0a;fill-opacity:1;fill-rule:nonzero;stroke:none"
               id="path22360" />
          </g>
        </g>
        <g
           id="g22362">
          <g
             id="g22364"
             clip-path="url(#clipPath22368-0)">
            <path
               d="m 3901.32,479.379 v 18.84 l 0.62,-0.078 v -18.832 l -0.62,0.07"
               style="fill:#54200b;fill-opacity:1;fill-rule:nonzero;stroke:none"
               id="path22370" />
            <path
               d="m 3901.94,479.309 v 18.832 c 1.66,-0.422 2.83,-2.551 3.47,-6.442 v -18.84 c -0.64,3.891 -1.81,6.032 -3.47,6.45"
               style="fill:#5d250d;fill-opacity:1;fill-rule:nonzero;stroke:none"
               id="path22372" />
            <path
               d="m 3905.41,472.859 v 18.84 c 0.39,-2.34 0.59,-5.32 0.59,-8.949 v -18.828 c 0,3.617 -0.2,6.598 -0.59,8.937"
               style="fill:#54200b;fill-opacity:1;fill-rule:nonzero;stroke:none"
               id="path22374" />
          </g>
        </g>
        <g
           id="g22376">
          <g
             id="g22378"
             clip-path="url(#clipPath22382-4)">
            <path
               d="m 3798.54,477.141 v 18.839 c 1.79,0.719 4.34,1.27 7.64,1.641 v -18.84 c -3.3,-0.371 -5.85,-0.922 -7.64,-1.64"
               style="fill:#4a1b0a;fill-opacity:1;fill-rule:nonzero;stroke:none"
               id="path22384" />
            <path
               d="m 3806.18,478.781 v 18.84 c 3.68,0.41 8.28,0.598 13.78,0.598 v -18.84 c -5.5,0 -10.1,-0.188 -13.78,-0.598"
               style="fill:#54200b;fill-opacity:1;fill-rule:nonzero;stroke:none"
               id="path22386" />
          </g>
        </g>
        <path
           d="m 3819.96,479.379 v 18.84 h 81.36 v -18.84 h -81.36"
           style="fill:#4e1d0a;fill-opacity:1;fill-rule:nonzero;stroke:none"
           id="path22388" />
        <path
           d="m 3901.32,479.379 c 3.06,0 4.68,-5.117 4.68,-15.457 0,-10.262 -0.72,-18.082 -2.16,-23.481 -1.35,-5.402 -3.15,-8.101 -5.31,-8.101 l -44.55,2.07 v -13.941 c 19.44,0.812 32.49,1.172 39.06,1.172 2.16,0 3.69,-1.071 4.5,-3.231 0.81,-2.16 1.17,-6.39 1.17,-12.601 0,-6.2 -0.72,-12.137 -2.16,-17.809 -1.53,-5.668 -3.51,-8.449 -6.12,-8.449 l -36.45,1.16 v -40.922 c 0,-2.07 -4.68,-3.508 -14.13,-4.5 -9.45,-0.98 -18.36,-1.43 -26.82,-1.43 -8.55,0 -14.04,0.45 -16.47,1.43 -2.52,0.992 -3.78,2.43 -3.78,4.5 v 129.793 c 0,3.508 1.89,6.117 5.76,7.559 3.78,1.531 10.98,2.238 21.42,2.238 h 81.36"
           style="fill:#843913;fill-opacity:1;fill-rule:nonzero;stroke:none"
           id="path22390" />
        <g
           id="g22392">
          <g
             id="g22394"
             clip-path="url(#clipPath22398-8)">
            <path
               d="m 3988.17,367.141 v 18.839 c 1.2,-1.32 2.64,-2.199 4.39,-2.64 V 364.5 c -1.75,0.441 -3.19,1.32 -4.39,2.641"
               style="fill:#5d250d;fill-opacity:1;fill-rule:nonzero;stroke:none"
               id="path22400" />
            <path
               d="m 3992.56,364.5 v 18.84 c 0.89,-0.219 1.84,-0.328 2.9,-0.328 l 1.42,0.078 v -18.84 l -1.42,-0.078 c -1.06,0 -2.01,0.109 -2.9,0.328"
               style="fill:#54200b;fill-opacity:1;fill-rule:nonzero;stroke:none"
               id="path22402" />
            <path
               d="m 3996.88,364.25 v 18.84 c 2.38,0.262 4.27,1.23 5.78,2.89 v -18.839 c -1.51,-1.661 -3.4,-2.629 -5.78,-2.891"
               style="fill:#4a1b0a;fill-opacity:1;fill-rule:nonzero;stroke:none"
               id="path22404" />
          </g>
        </g>
        <g
           id="g22406">
          <g
             id="g22408"
             clip-path="url(#clipPath22412-8)">
            <path
               d="m 4002.66,367.141 v 18.839 c 1.71,1.969 3.24,6.2 4.41,12.668 v -18.839 c -1.17,-6.469 -2.7,-10.7 -4.41,-12.668"
               style="fill:#4a1b0a;fill-opacity:1;fill-rule:nonzero;stroke:none"
               id="path22414" />
          </g>
        </g>
        <g
           id="g22416">
          <g
             id="g22418"
             clip-path="url(#clipPath22422-7)">
            <path
               d="m 4007.07,379.809 v 18.839 c 1.17,6.481 1.71,15.571 1.71,27.172 v -18.84 c 0,-11.601 -0.54,-20.691 -1.71,-27.171"
               style="fill:#4a1b0a;fill-opacity:1;fill-rule:nonzero;stroke:none"
               id="path22424" />
          </g>
        </g>
        <g
           id="g22426">
          <g
             id="g22428"
             clip-path="url(#clipPath22432-2)">
            <path
               d="m 3982.05,406.98 v 18.84 c 0,-11.07 0.49,-19.851 1.55,-26.269 v -18.84 c -1.06,6.418 -1.55,15.199 -1.55,26.269"
               style="fill:#54200b;fill-opacity:1;fill-rule:nonzero;stroke:none"
               id="path22434" />
            <path
               d="m 3983.6,380.711 v 18.84 l 0.16,-0.903 c 1.17,-6.468 2.7,-10.699 4.41,-12.668 v -18.839 c -1.71,1.968 -3.24,6.199 -4.41,12.668 l -0.16,0.902"
               style="fill:#5d250d;fill-opacity:1;fill-rule:nonzero;stroke:none"
               id="path22436" />
          </g>
        </g>
        <g
           id="g22450">
          <g
             id="g22452"
             clip-path="url(#clipPath22456-3)">
            <path
               d="m 3918.06,408.602 v 18.839 c 0,12.77 1.98,24.02 6.03,33.547 3.96,9.532 9.54,17.094 16.74,22.75 11.06,8.582 24.71,13.813 40.97,15.633 v -18.832 c -16.26,-1.828 -29.91,-7.051 -40.97,-15.641 -7.2,-5.656 -12.78,-13.218 -16.74,-22.75 -4.05,-9.527 -6.03,-20.769 -6.03,-33.546"
               style="fill:#4a1b0a;fill-opacity:1;fill-rule:nonzero;stroke:none"
               id="path22458" />
            <path
               d="m 3981.8,480.539 v 18.832 c 4.36,0.488 8.91,0.75 13.66,0.75 11.52,0 21.6,-1 30.15,-2.883 l 1.85,-0.437 v -18.84 l -1.85,0.437 c -8.55,1.883 -18.63,2.883 -30.15,2.883 -4.75,0 -9.3,-0.25 -13.66,-0.742"
               style="fill:#54200b;fill-opacity:1;fill-rule:nonzero;stroke:none"
               id="path22460" />
            <path
               d="m 4027.46,477.961 v 18.84 c 7.86,-1.969 15.26,-5.332 22.36,-9.992 v -18.84 c -7.1,4.672 -14.5,8.031 -22.36,9.992"
               style="fill:#5d250d;fill-opacity:1;fill-rule:nonzero;stroke:none"
               id="path22462" />
          </g>
        </g>
        <path
           d="m 4007.07,379.809 c 1.17,6.48 1.71,15.57 1.71,27.171 0,11.52 -0.54,20.508 -1.71,26.809 -1.17,6.199 -2.7,10.34 -4.41,12.231 -1.8,1.89 -4.14,2.878 -7.2,2.878 -3.15,0 -5.49,-0.988 -7.29,-2.878 -1.71,-1.891 -3.24,-6.032 -4.41,-12.231 -1.17,-6.301 -1.71,-15.289 -1.71,-26.809 0,-11.601 0.54,-20.691 1.71,-27.171 1.17,-6.469 2.7,-10.7 4.41,-12.668 1.8,-1.981 4.14,-2.969 7.29,-2.969 3.06,0 5.4,0.988 7.2,2.969 1.71,1.968 3.24,6.199 4.41,12.668 z m 42.75,88.16 c 15.3,-10.438 23.04,-30.231 23.04,-59.367 0,-26.27 -7.02,-45.512 -20.88,-57.93 -13.86,-12.5 -32.76,-18.711 -56.52,-18.711 -12.15,0 -22.59,1.09 -31.32,3.25 -8.64,2.07 -16.65,5.84 -23.94,11.32 -14.76,10.801 -22.14,31.489 -22.14,62.071 0,12.777 1.98,24.019 6.03,33.546 3.96,9.532 9.54,17.094 16.74,22.75 14.04,10.891 32.22,16.383 54.63,16.383 11.52,0 21.6,-1 30.15,-2.883 8.55,-1.898 16.56,-5.398 24.21,-10.429"
           style="fill:#843913;fill-opacity:1;fill-rule:nonzero;stroke:none"
           id="path22464" />
      </g>
    </g>
  </g>
</svg>
